<?xml version="1.0" encoding="UTF-8" standalone="no"?>
<!-- Uploaded to: SVG Repo, www.svgrepo.com, Generator: SVG Repo Mixer Tools -->

<svg
   fill="#000000"
   width="24.393076"
   height="24.189499"
   viewBox="0 0 3.9028922 3.8703198"
   id="Layer_1"
   version="1.1"
   xml:space="preserve"
   sodipodi:docname="account-head.svg"
   inkscape:version="1.2.1 (9c6d41e410, 2022-07-14)"
   xmlns:inkscape="http://www.inkscape.org/namespaces/inkscape"
   xmlns:sodipodi="http://sodipodi.sourceforge.net/DTD/sodipodi-0.dtd"
   xmlns="http://www.w3.org/2000/svg"
   xmlns:svg="http://www.w3.org/2000/svg"><defs
   id="defs540" /><sodipodi:namedview
   id="namedview538"
   pagecolor="#ffffff"
   bordercolor="#666666"
   borderopacity="1.0"
   inkscape:showpageshadow="2"
   inkscape:pageopacity="0.0"
   inkscape:pagecheckerboard="0"
   inkscape:deskcolor="#d1d1d1"
   showgrid="true"
   inkscape:zoom="18.582766"
   inkscape:cx="18.269616"
   inkscape:cy="10.278341"
   inkscape:window-width="1600"
   inkscape:window-height="837"
   inkscape:window-x="-8"
   inkscape:window-y="-8"
   inkscape:window-maximized="1"
   inkscape:current-layer="Layer_1"><inkscape:grid
     type="xygrid"
     id="grid665" /></sodipodi:namedview>

<g
   id="g535"
   transform="matrix(0.03338475,0,0,0.02915467,-0.17656831,-0.04125416)">

<path
   d="M 30,49 C 30,67.7 45.3,83 64,83 82.7,83 98,67.7 98,49 98,30.3 82.7,15 64,15 45.3,15 30,30.3 30,49 Z m 60,0 C 90,63.3 78.3,75 64,75 49.7,75 38,63.3 38,49 38,34.7 49.7,23 64,23 78.3,23 90,34.7 90,49 Z"
   id="path531" />

<path
   d="M 24.4,119.4 C 35,108.8 49,103 64,103 c 15,0 29,5.8 39.6,16.4 l 5.7,-5.7 C 97.2,101.7 81.1,95 64,95 46.9,95 30.8,101.7 18.7,113.7 Z"
   id="path533" />

</g>

</svg>
