<?xml version="1.0" encoding="UTF-8" standalone="no"?>
<!-- Uploaded to: SVG Repo, www.svgrepo.com, Transformed by: SVG Repo Mixer Tools -->

<svg
   fill="#000000"
   version="1.1"
   id="Layer_1"
   viewBox="0 0 156.35489 182.01572"
   xml:space="preserve"
   width="20.421864"
   height="23.773481"
   sodipodi:docname="address-book.svg"
   inkscape:version="1.2.1 (9c6d41e410, 2022-07-14)"
   xmlns:inkscape="http://www.inkscape.org/namespaces/inkscape"
   xmlns:sodipodi="http://sodipodi.sourceforge.net/DTD/sodipodi-0.dtd"
   xmlns="http://www.w3.org/2000/svg"
   xmlns:svg="http://www.w3.org/2000/svg"><defs
   id="defs8540" /><sodipodi:namedview
   id="namedview8538"
   pagecolor="#ffffff"
   bordercolor="#666666"
   borderopacity="1.0"
   inkscape:showpageshadow="2"
   inkscape:pageopacity="0.0"
   inkscape:pagecheckerboard="0"
   inkscape:deskcolor="#d1d1d1"
   showgrid="false"
   inkscape:zoom="7.2588931"
   inkscape:cx="11.916417"
   inkscape:cy="33.889465"
   inkscape:window-width="1600"
   inkscape:window-height="837"
   inkscape:window-x="-8"
   inkscape:window-y="-8"
   inkscape:window-maximized="1"
   inkscape:current-layer="Layer_1" />

<g
   id="SVGRepo_bgCarrier"
   stroke-width="0"
   transform="matrix(0.39088724,0,0,0.37146064,-17.589926,0)" />

<g
   id="SVGRepo_tracerCarrier"
   stroke-linecap="round"
   stroke-linejoin="round"
   transform="matrix(0.39088724,0,0,0.37146064,-17.589926,0)" />

<g
   id="SVGRepo_iconCarrier"
   transform="matrix(0.39088724,0,0,0.37146064,-17.589926,0)"> <g
   id="g8534"> <g
   id="g8532"> <g
   id="g8530"> <path
   d="M 415,0 H 75 C 58.458,0 45,13.458 45,30 v 430 c 0,16.542 13.458,30 30,30 h 340 c 16.542,0 30,-13.458 30,-30 V 30 C 445,13.458 431.542,0 415,0 Z M 295,20 h 25 v 150 h 20 V 20 h 25 v 209.554 l -28.86,-22.447 c -3.611,-2.809 -8.668,-2.809 -12.279,0 L 295,229.554 Z M 105,470 H 75 c -5.514,0 -10,-4.486 -10,-10 V 30 c 0,-5.514 4.486,-10 10,-10 h 30 z m 320,-10 c 0,5.514 -4.486,10 -10,10 H 125 V 20 H 275 V 40 H 155 c -5.523,0 -10,4.477 -10,10 v 145 c 0,5.523 4.477,10 10,10 h 120 v 45 c 0,3.819 2.176,7.305 5.606,8.983 3.432,1.677 7.518,1.254 10.533,-1.09 L 330,227.669 l 38.86,30.225 c 1.79,1.392 3.957,2.106 6.141,2.106 1.495,0 2.998,-0.335 4.393,-1.017 C 382.825,257.305 385,253.819 385,250 V 20 h 30 c 5.514,0 10,4.486 10,10 z M 275,60 V 185 H 165 V 60 Z"
   id="path8522" /> <rect
   x="370"
   y="385"
   width="25"
   height="20"
   id="rect8524" /> <rect
   x="250"
   y="425"
   width="145"
   height="20"
   id="rect8526" /> <rect
   x="295"
   y="385"
   width="60"
   height="20"
   id="rect8528" /> </g> </g> </g> </g>

</svg>
