<svg width="4240" height="2190" viewBox="0 0 4240 2190" fill="none" xmlns="http://www.w3.org/2000/svg">
<g clip-path="url(#clip0_2966_57427)">
<rect width="4240" height="2190" fill="white"/>
<path fill-rule="evenodd" clip-rule="evenodd" d="M2987.76 733.716L3679.17 1975.43C3738.42 2083.44 3684.82 2148.45 3559.36 2120.74L2059.38 1828.33C1930.76 1804.44 1819.15 1766.13 1724.48 1593.2L1019.07 337.167C959.825 229.153 1013.43 164.146 1138.89 191.859L2638.87 484.269C2837.3 522.283 2929.45 632.393 2987.76 733.716Z" fill="#E7F8FF"/>
<path fill-rule="evenodd" clip-rule="evenodd" d="M2812.12 1603.37L4120.24 1224.55C4233.31 1190.35 4243.53 1102.59 4143.1 1028.37L2969.24 112.647C2814.51 -12.5495 2715.87 -9.6248 2589.72 32.0919L1264.27 417.332C1151.2 451.526 1140.98 539.289 1241.41 613.509L2415.27 1529.23C2570.93 1650.63 2685.32 1648.52 2812.12 1603.37Z" fill="#D1F2FF"/>
<g opacity="0.4">
<path fill-rule="evenodd" clip-rule="evenodd" d="M1636.71 1967.07L2912.85 1578.3C3025.87 1542.7 3039.45 1461.51 2943.2 1396.8L1820.27 596.103C1724.82 526.621 1557.15 499.365 1448.66 535.697L124.419 938.604C11.4001 974.199 -2.18005 1055.39 94.0633 1120.1L1217 1920.8C1327.28 2004.73 1464.68 2020.2 1636.71 1967.07Z" fill="url(#paint0_linear_2966_57427)"/>
<path fill-rule="evenodd" clip-rule="evenodd" d="M1636.71 1967.07L2912.85 1578.3C3025.87 1542.7 3039.45 1461.51 2943.2 1396.8L1820.27 596.103C1724.82 526.621 1557.15 499.365 1448.66 535.697L124.419 938.604C11.4001 974.199 -2.18005 1055.39 94.0633 1120.1L1217 1920.8C1327.28 2004.73 1464.68 2020.2 1636.71 1967.07Z" fill="#E6F8FF"/>
</g>
<g style="mix-blend-mode:overlay" opacity="0.4">
<path fill-rule="evenodd" clip-rule="evenodd" d="M1638.71 1966.07L2914.85 1577.3C3027.87 1541.7 3041.45 1460.51 2945.2 1395.8L1822.27 595.103C1726.82 525.621 1559.15 498.365 1450.66 534.697L126.419 937.604C13.4001 973.199 -0.180048 1054.39 96.0633 1119.1L1219 1919.8C1329.28 2003.73 1466.68 2019.2 1638.71 1966.07Z" fill="url(#paint1_linear_2966_57427)"/>
<path fill-rule="evenodd" clip-rule="evenodd" d="M1638.71 1966.07L2914.85 1577.3C3027.87 1541.7 3041.45 1460.51 2945.2 1395.8L1822.27 595.103C1726.82 525.621 1559.15 498.365 1450.66 534.697L126.419 937.604C13.4001 973.199 -0.180048 1054.39 96.0633 1119.1L1219 1919.8C1329.28 2003.73 1466.68 2019.2 1638.71 1966.07Z" fill="#E6F8FF"/>
</g>
</g>
<defs>
<linearGradient id="paint0_linear_2966_57427" x1="1211.38" y1="1911.44" x2="1359.63" y2="553.615" gradientUnits="userSpaceOnUse">
<stop stop-color="#F0FBFF"/>
<stop offset="1" stop-color="#DBF5FF"/>
</linearGradient>
<linearGradient id="paint1_linear_2966_57427" x1="1213.38" y1="1910.44" x2="1361.63" y2="552.615" gradientUnits="userSpaceOnUse">
<stop stop-color="#F0FBFF"/>
<stop offset="1" stop-color="#DBF5FF"/>
</linearGradient>
<clipPath id="clip0_2966_57427">
<rect width="4240" height="2190" fill="white"/>
</clipPath>
</defs>
</svg>
