<?xml version="1.0" encoding="UTF-8" standalone="no"?>
<!-- Uploaded to: SVG Repo, www.svgrepo.com, Transformed by: SVG Repo Mixer Tools -->

<svg
   width="24.324738"
   height="24.199944"
   viewBox="0 0 1.945979 1.9359955"
   data-name="Layer 1"
   id="Layer_1"
   fill="#000000"
   version="1.1"
   sodipodi:docname="development-cognitive.svg"
   inkscape:version="1.2.1 (9c6d41e410, 2022-07-14)"
   xmlns:inkscape="http://www.inkscape.org/namespaces/inkscape"
   xmlns:sodipodi="http://sodipodi.sourceforge.net/DTD/sodipodi-0.dtd"
   xmlns="http://www.w3.org/2000/svg"
   xmlns:svg="http://www.w3.org/2000/svg">
  <defs
     id="defs513">
    <defs
       id="defs491">
      <style
         id="style489"> .cls-1 { fill: #f5dd90; } .cls-2 { fill: #d36409; } .cls-3 { fill: #d36409; } .cls-4 { fill: #d36409; } </style>
    </defs>
  </defs>
  <sodipodi:namedview
     id="namedview511"
     pagecolor="#ffffff"
     bordercolor="#666666"
     borderopacity="1.0"
     inkscape:showpageshadow="2"
     inkscape:pageopacity="0.0"
     inkscape:pagecheckerboard="0"
     inkscape:deskcolor="#d1d1d1"
     showgrid="false"
     inkscape:zoom="13.14"
     inkscape:cx="12.480974"
     inkscape:cy="15.677321"
     inkscape:window-width="1600"
     inkscape:window-height="837"
     inkscape:window-x="-8"
     inkscape:window-y="-8"
     inkscape:window-maximized="1"
     inkscape:current-layer="Layer_1" />
  <g
     id="SVGRepo_bgCarrier"
     stroke-width="0"
     transform="matrix(0.94668674,0,0,1,-4.7334337,-6)" />
  <g
     id="SVGRepo_tracerCarrier"
     stroke-linecap="round"
     stroke-linejoin="round"
     transform="matrix(0.94668674,0,0,1,-4.7334337,-6)" />
  <path
     class="cls-4"
     d="m 1.484492,0.96803642 c 0,-0.0335089 0.010809,-0.0640393 0.028825,-0.0893572 C 1.500346,0.79900242 1.470079,0.725655 1.426842,0.66236031 1.396936,0.65752031 1.368111,0.64411651 1.345411,0.62028801 1.322711,0.59645941 1.309019,0.56667371 1.304696,0.53614331 1.243443,0.49146471 1.172461,0.46018971 1.0953538,0.44678611 c -0.024141,0.0186161 -0.054047,0.0297857 -0.086475,0.0297857 -0.0324282,0 -0.061974,-0.0111696 -0.0864753,-0.0297857 -0.0771071,0.0134036 -0.14808889,0.0446786 -0.20934221,0.0893572 -0.004684,0.0309027 -0.0176554,0.0606884 -0.0407154,0.0841447 -0.0230601,0.0234563 -0.0518852,0.0376045 -0.0814309,0.0420723 -0.0432376,0.0632947 -0.073504,0.13664207 -0.0864753,0.21631891 0.0180157,0.0249456 0.0288251,0.0558483 0.0288251,0.0893572 0,0.033509 -0.0108094,0.0640394 -0.0288251,0.0893572 0.0129713,0.079677 0.0432376,0.1530242 0.0864753,0.2163189 0.029906,0.00484 0.0587311,0.018244 0.0814309,0.042072 0.0230601,0.023829 0.0363917,0.053614 0.0407154,0.084145 0.0612533,0.044679 0.1322351,0.075954 0.20934221,0.089357 0.024141,-0.018616 0.054047,-0.029786 0.0864753,-0.029786 0.032428,0 0.061974,0.01117 0.086475,0.029786 0.077107,-0.013404 0.1480889,-0.044679 0.2093422,-0.089357 0.00468,-0.030903 0.017655,-0.060688 0.040715,-0.084145 0.02306,-0.023829 0.051885,-0.037604 0.081431,-0.042072 C 1.47008,1.2104175 1.500346,1.1370705 1.513317,1.0573936 1.495301,1.0324486 1.484492,1.0015456 1.484492,0.96803642 Z"
     id="path493"
     style="stroke-width:0.0366268;fill:#241c1c" />
  <ellipse
     class="cls-1"
     cx="1.0088781"
     cy="0.96803641"
     id="circle495"
     rx="0.32428223"
     ry="0.33508953"
     style="stroke-width:0.0366268;fill:#ff6600" />
  <path
     class="cls-3"
     d="M 0.07206272,0.96803642 C 0.07206272,0.43338246 0.49146775,0 1.0088781,0 v 0.14892868 c -0.43778104,0 -0.79268994,0.36673687 -0.79268994,0.81910774"
     id="path497"
     style="stroke-width:0.0366268;fill:#ff6600" />
  <polygon
     class="cls-2"
     points="5,32 13,32 9,38 "
     id="polygon499"
     transform="matrix(0.03603136,0,0,0.03723217,-0.1801568,-0.22339302)"
     style="fill:#ff6600" />
  <path
     class="cls-3"
     d="M 1.4772858,1.8061326 C 1.0290556,2.0734595 0.45615702,1.9148505 0.19745185,1.4516823 L 0.32212036,1.377218 C 0.54119103,1.7689004 1.0258128,1.9033085 1.4048627,1.6769369"
     id="path501"
     style="stroke-width:0.0366268;fill:#ff6600" />
  <polygon
     class="cls-2"
     points="47,56.25 43,49.32 50.19,49.78 "
     id="polygon503"
     transform="matrix(0.03603136,0,0,0.03723217,-0.1801568,-0.22339302)"
     style="fill:#ff6600" />
  <path
     class="cls-3"
     d="M 1.4772858,0.12956795 C 1.9255159,0.39689493 2.0790095,0.98888644 1.8203043,1.4520546 L 1.6956358,1.3775903 C 1.9147065,0.98590786 1.7846333,0.48476285 1.4055834,0.25876358"
     id="path505"
     style="stroke-width:0.0366268;fill:#ff6600" />
  <polygon
     class="cls-2"
     points="47,7.75 43,14.68 39.8,8.21 "
     id="polygon507"
     transform="matrix(0.03603136,0,0,0.03723217,-0.1801568,-0.22339302)"
     style="fill:#ff6600" />
</svg>
