<svg width="85" height="82" viewBox="0 0 85 82" fill="none" xmlns="http://www.w3.org/2000/svg">
<g opacity="0.8" filter="url(#filter0_dd_3494_10409)">
<path fill-rule="evenodd" clip-rule="evenodd" d="M46.3293 41.595L45.8775 47.8625H13.0472L12.8779 38.2253L27.583 23.8245C28.7381 22.7535 29.7218 21.7851 30.2582 20.9612C30.4809 20.6436 30.7955 20.2972 31.1076 19.9536C31.6048 19.4062 32.0954 18.8661 32.1968 18.4611C32.2891 18.1479 32.4283 17.9303 32.5539 17.7339C32.7092 17.4912 32.8438 17.2808 32.8438 16.9621C32.8438 15.5616 32.4177 14.573 31.4688 13.7904C30.5612 13.0077 29.8882 13.0049 28.0317 13.0049C26.464 13.0049 24.9062 13.6222 23.5448 14.3225C22.6839 14.7653 21.9503 15.5499 21.1933 16.3596C20.7533 16.8302 20.3054 17.3094 19.8199 17.7347L12.1719 8.4622C12.1719 8.4622 10.7953 9.44899 9.84716 12.4831C9.84716 12.4831 8.94873 14.3225 8.94873 18.9862V56.5068C8.94873 64.6476 15.5634 71.247 23.7231 71.247H61.3305C69.3879 71.247 75.9388 64.8121 76.1018 56.8123L59.7942 42.605L46.3293 41.595Z" fill="url(#paint0_linear_3494_10409)"/>
</g>
<path d="M46.5489 47.5214H47.0489V47.0214V36.9687V36.4687H46.5489H30.3893L33.0685 34.0527C33.0685 34.0526 33.0686 34.0526 33.0686 34.0525C35.2279 32.1094 37.1144 30.3332 38.7272 28.7241C40.3894 27.0657 41.761 25.4637 42.8375 23.9177C43.9614 22.3644 44.7889 20.7599 45.3133 19.1044C45.8807 17.4049 46.1617 15.5606 46.1617 13.5756C46.1617 11.1213 45.5013 8.91558 44.1756 6.97433C42.895 5.03724 41.09 3.52743 38.7805 2.43989C36.4594 1.30464 33.7204 0.746826 30.5794 0.746826C27.5454 0.746826 24.953 1.10856 22.8157 1.84765C20.7068 2.53509 18.8458 3.44045 17.238 4.56767L17.238 4.56763L17.2327 4.57141C16.1832 5.32767 15.2711 6.21395 14.3886 7.07141C13.97 7.4782 13.558 7.8785 13.1412 8.25534L12.8023 8.56178L13.077 8.92686L19.4037 17.3343L19.7249 17.7611L20.1296 17.4124C20.5987 17.0083 21.0229 16.6281 21.4157 16.2748C21.4562 16.2383 21.4963 16.2022 21.5361 16.1664C21.8835 15.8537 22.2049 15.5644 22.5156 15.2953C23.2077 14.6956 23.826 14.2141 24.4997 13.8385C25.4161 13.3275 26.6803 12.8743 27.9449 12.7169C29.2185 12.5583 30.4135 12.7085 31.2675 13.3049L31.2674 13.305L31.2769 13.3113C32.8173 14.3359 33.2048 16.515 32.3504 18.2199C31.8736 19.1712 31.0008 20.354 29.7034 21.7736L29.7033 21.7736L29.6979 21.7797C28.4382 23.204 26.6721 25.1131 24.3976 27.5086L13.1985 37.901L13.034 38.0536L13.0387 38.278L13.2229 47.0319L13.2332 47.5214H13.7228H46.5489Z" stroke="#07DAC9"/>
<path d="M49.8822 67.4653L49.8822 67.4653L49.8868 67.4684C52.7958 69.3571 56.4191 70.2847 60.7259 70.2847C64.4466 70.2847 67.7163 69.5602 70.5197 68.0934C73.3608 66.6301 75.5713 64.5886 77.1374 61.9703C78.7502 59.3485 79.5506 56.3432 79.5506 52.9703C79.5506 49.7876 78.8895 47.0286 77.5445 44.714C76.2073 42.3687 74.3805 40.5671 72.0682 39.3206C69.7568 38.0299 67.1308 37.3906 64.2036 37.3906C62.4197 37.3906 60.7423 37.6414 59.1742 38.1467C58.1456 38.449 57.218 38.8333 56.395 39.3022C57.1903 37.766 58.2004 36.5438 59.4195 35.6227C61.0447 34.4285 63.0005 33.6103 65.2992 33.1776L65.2992 33.1776L65.3063 33.1762C67.6663 32.6965 70.3218 32.5199 73.2767 32.6519L73.799 32.6752V32.1524V22.0104V21.5333L73.3225 21.5109C68.5495 21.2863 64.1897 21.7573 60.2486 22.9324L60.2471 22.9329C56.352 24.1077 52.9675 25.9187 50.1017 28.3695L50.1017 28.3695L50.0987 28.3721C47.2764 30.8245 45.0927 33.8216 43.5481 37.3568L43.5481 37.3568L43.5469 37.3597C42.0449 40.8562 41.2993 44.7949 41.2993 49.167C41.2993 53.0538 42.0017 56.5937 43.4155 59.7788C44.8358 62.9785 46.9934 65.5439 49.8822 67.4653ZM64.618 56.8998L64.6179 56.8998L64.6136 56.9098C64.2464 57.7646 63.7271 58.3935 63.063 58.8222C62.3929 59.2548 61.6193 59.4763 60.7259 59.4763C59.1564 59.4763 57.9941 58.969 57.1694 57.9942C56.3367 56.9112 55.7901 55.6372 55.5353 54.1611C55.3269 52.6585 55.3429 51.2915 55.5745 50.0557C55.9286 49.6387 56.3169 49.2776 56.7393 48.9712L56.7393 48.9712L56.7452 48.9668C57.2329 48.6019 57.7577 48.3406 58.3216 48.1799L58.332 48.1769L58.3423 48.1735C58.9596 47.9682 59.5973 47.8654 60.2577 47.8654C61.4289 47.8654 62.3444 48.136 63.0418 48.6385C63.7632 49.1583 64.3089 49.8595 64.6772 50.7579L64.6772 50.7579L64.6805 50.7655C65.0515 51.6293 65.2418 52.6062 65.2418 53.7042C65.2418 54.9367 65.0289 55.998 64.618 56.8998Z" fill="#1F586C" stroke="#07DAC9"/>
<defs>
<filter id="filter0_dd_3494_10409" x="0.94873" y="2.46216" width="83.1528" height="78.7849" filterUnits="userSpaceOnUse" color-interpolation-filters="sRGB">
<feFlood flood-opacity="0" result="BackgroundImageFix"/>
<feColorMatrix in="SourceAlpha" type="matrix" values="0 0 0 0 0 0 0 0 0 0 0 0 0 0 0 0 0 0 127 0" result="hardAlpha"/>
<feMorphology radius="2" operator="dilate" in="SourceAlpha" result="effect1_dropShadow_3494_10409"/>
<feOffset dy="2"/>
<feGaussianBlur stdDeviation="3"/>
<feColorMatrix type="matrix" values="0 0 0 0 0 0 0 0 0 0 0 0 0 0 0 0 0 0 0.15 0"/>
<feBlend mode="normal" in2="BackgroundImageFix" result="effect1_dropShadow_3494_10409"/>
<feColorMatrix in="SourceAlpha" type="matrix" values="0 0 0 0 0 0 0 0 0 0 0 0 0 0 0 0 0 0 127 0" result="hardAlpha"/>
<feOffset dy="1"/>
<feGaussianBlur stdDeviation="1"/>
<feColorMatrix type="matrix" values="0 0 0 0 0 0 0 0 0 0 0 0 0 0 0 0 0 0 0.3 0"/>
<feBlend mode="normal" in2="effect1_dropShadow_3494_10409" result="effect2_dropShadow_3494_10409"/>
<feBlend mode="normal" in="SourceGraphic" in2="effect2_dropShadow_3494_10409" result="shape"/>
</filter>
<linearGradient id="paint0_linear_3494_10409" x1="33.7953" y1="2.84271" x2="67.6306" y2="70.8354" gradientUnits="userSpaceOnUse">
<stop offset="0.04" stop-color="#00FFDD"/>
<stop offset="1" stop-color="#00B5FD"/>
</linearGradient>
</defs>
</svg>
