<?xml version="1.0" encoding="UTF-8" standalone="no"?>
<!-- Uploaded to: SVG Repo, www.svgrepo.com, Generator: SVG Repo Mixer Tools -->

<svg
   fill="#000000"
   version="1.1"
   id="Layer_1"
   viewBox="0 0 24.012177 23.817352"
   xml:space="preserve"
   sodipodi:docname="it-infrastructure.svg"
   width="24.012177"
   height="23.817352"
   inkscape:version="1.2.1 (9c6d41e410, 2022-07-14)"
   xmlns:inkscape="http://www.inkscape.org/namespaces/inkscape"
   xmlns:sodipodi="http://sodipodi.sourceforge.net/DTD/sodipodi-0.dtd"
   xmlns="http://www.w3.org/2000/svg"
   xmlns:svg="http://www.w3.org/2000/svg"><defs
   id="defs4655" /><sodipodi:namedview
   id="namedview4653"
   pagecolor="#ffffff"
   bordercolor="#666666"
   borderopacity="1.0"
   inkscape:showpageshadow="2"
   inkscape:pageopacity="0.0"
   inkscape:pagecheckerboard="0"
   inkscape:deskcolor="#d1d1d1"
   showgrid="false"
   inkscape:zoom="20.53125"
   inkscape:cx="15.853881"
   inkscape:cy="12.17656"
   inkscape:window-width="1600"
   inkscape:window-height="837"
   inkscape:window-x="-8"
   inkscape:window-y="-8"
   inkscape:window-maximized="1"
   inkscape:current-layer="Layer_1" />
<path
   id="it--infrastructure-software_1_"
   d="m 16.883562,3.3493151 c 0,0.2054246 -0.168086,0.372146 -0.375191,0.372146 -0.207105,0 -0.37519,-0.1667214 -0.37519,-0.372146 0,-0.2054247 0.168085,-0.3721461 0.37519,-0.3721461 0.207105,0 0.375191,0.1667214 0.375191,0.3721461 z M 15.00761,2.977169 c -0.207105,0 -0.37519,0.1667214 -0.37519,0.3721461 0,0.2054246 0.168085,0.372146 0.37519,0.372146 0.207105,0 0.375191,-0.1667214 0.375191,-0.372146 0,-0.2054247 -0.168086,-0.3721461 -0.375191,-0.3721461 z m -1.500761,0 c -0.207105,0 -0.37519,0.1667214 -0.37519,0.3721461 0,0.2054246 0.168085,0.372146 0.37519,0.372146 0.207105,0 0.375191,-0.1667214 0.375191,-0.372146 0,-0.2054247 -0.168086,-0.3721461 -0.375191,-0.3721461 z m 9.004567,18.875251 h -6.003045 c -0.149325,0 -0.270137,-0.119831 -0.270137,-0.267945 v -2.977169 c 0,-0.148115 0.120812,-0.267946 0.270137,-0.267946 h 2.731385 v -2.441278 h -6.963531 v 2.440534 h 2.731385 c 0.149326,0 0.270137,0.119831 0.270137,0.267945 v 2.977169 c 0,0.148114 -0.120811,0.267945 -0.270137,0.267945 H 9.0045662 c -0.1493257,0 -0.270137,-0.119831 -0.270137,-0.267945 v -2.977169 c 0,-0.148114 0.1208113,-0.267945 0.270137,-0.267945 H 11.735951 V 15.898082 H 4.7724201 v 2.440534 h 2.7313851 c 0.1493257,0 0.270137,0.119831 0.270137,0.267945 v 2.977169 c 0,0.148114 -0.1208113,0.267945 -0.270137,0.267945 H 1.500761 c -0.1493257,0 -0.270137,-0.119831 -0.270137,-0.267945 v -2.977169 c 0,-0.148114 0.1208113,-0.267945 0.270137,-0.267945 h 2.7313851 v -2.708479 c 0,-0.148114 0.1208113,-0.267946 0.270137,-0.267946 h 7.2336679 v -3.18557 H 6.0030441 c -0.1493257,0 -0.2701369,-0.119831 -0.2701369,-0.267945 V 2.2328767 c 0,-0.1481142 0.1208112,-0.2679452 0.2701369,-0.2679452 H 18.009132 c 0.149326,0 0.270137,0.1198309 0.270137,0.2679452 v 9.6757993 c 0,0.148114 -0.120811,0.267945 -0.270137,0.267945 h -5.732907 v 3.18557 h 7.233668 c 0.149326,0 0.270137,0.119831 0.270137,0.267946 v 2.709223 h 2.731386 c 0.149325,0 0.270137,0.119831 0.270137,0.267946 v 2.977169 c 0,0.148114 -0.120812,0.267945 -0.270137,0.267945 z m -5.732908,-0.535891 h 5.46202 v -2.441278 h -5.46202 z m -7.5038048,0 H 14.737473 V 18.875251 H 9.2747032 c 0,0 0,2.441278 0,2.441278 z m -7.5038052,0 H 7.2336682 V 18.875251 H 1.770898 Z M 6.2731811,11.640731 H 17.738995 V 4.7336986 H 6.2731811 Z m 0,-7.4429228 H 17.738995 V 2.5008219 H 6.2731811 Z M 18.759513,20.363836 h -1.500761 v -0.535891 h 1.500761 z m -7.503805,0 H 9.7549467 v -0.535891 h 1.5007613 z m -7.5038054,0 h -1.500761 v -0.535891 h 1.500761 z"
   style="stroke-width:0.74733;fill:#ff6600" />
<rect
   id="_Transparent_Rectangle"
   style="fill:none;stroke-width:0.74733"
   width="24.012177"
   height="23.817352"
   x="0"
   y="0" />
</svg>
