<?xml version="1.0" encoding="UTF-8" standalone="no"?>
<!-- Uploaded to: SVG Repo, www.svgrepo.com, Generator: SVG Repo Mixer Tools -->

<svg
   fill="#000000"
   height="24.166855"
   width="23.521093"
   version="1.1"
   id="Layer_1"
   viewBox="0 0 15.0535 15.466787"
   xml:space="preserve"
   sodipodi:docname="login-window.svg"
   inkscape:version="1.2.1 (9c6d41e410, 2022-07-14)"
   xmlns:inkscape="http://www.inkscape.org/namespaces/inkscape"
   xmlns:sodipodi="http://sodipodi.sourceforge.net/DTD/sodipodi-0.dtd"
   xmlns="http://www.w3.org/2000/svg"
   xmlns:svg="http://www.w3.org/2000/svg"><defs
   id="defs65" /><sodipodi:namedview
   id="namedview63"
   pagecolor="#ffffff"
   bordercolor="#666666"
   borderopacity="1.0"
   inkscape:showpageshadow="2"
   inkscape:pageopacity="0.0"
   inkscape:pagecheckerboard="0"
   inkscape:deskcolor="#d1d1d1"
   showgrid="false"
   inkscape:zoom="9.2913831"
   inkscape:cx="38.153631"
   inkscape:cy="17.43551"
   inkscape:window-width="1600"
   inkscape:window-height="837"
   inkscape:window-x="-8"
   inkscape:window-y="-8"
   inkscape:window-maximized="1"
   inkscape:current-layer="Layer_1" />
<g
   id="g6"
   transform="matrix(0.02940131,0,0,0.03020851,2.940131e-5,3.020851e-5)">
	<g
   id="g4">
		<path
   d="M 511.489,20.065 C 509.128,8.518 498.662,0 486.881,0 h -76.96 c -4.428,0 -8.017,3.588 -8.017,8.017 0,4.428 3.588,8.017 8.017,8.017 h 76.96 c 4.953,0 9.086,4.127 9.086,9.086 V 85.512 H 16.033 V 25.119 c 0,-4.953 4.133,-9.086 9.086,-9.086 h 342.046 c 4.428,0 8.017,-3.588 8.017,-8.017 0,-4.428 -3.588,-8.017 -8.017,-8.017 H 25.119 C 11.429,0 0,11.423 0,25.119 v 324.944 c 0,4.428 3.589,8.017 8.017,8.017 4.427,0 8.017,-3.588 8.017,-8.017 V 101.545 h 479.933 v 385.336 c 0,5.01 -4.076,9.086 -9.086,9.086 H 25.119 c -5.01,0 -9.086,-4.076 -9.086,-9.086 v -94.063 c 0,-4.428 -3.589,-8.017 -8.017,-8.017 -4.427,0 -8.017,3.588 -8.017,8.017 v 94.063 C 0,500.732 11.268,512 25.119,512 H 486.881 C 500.732,512 512,500.732 512,486.881 V 25.119 c 0,-1.697 -0.171,-3.398 -0.511,-5.054 z"
   id="path2" />
	</g>
</g>
<g
   id="g12"
   transform="matrix(0.02940131,0,0,0.03020851,2.940131e-5,3.020851e-5)">
	<g
   id="g10">
		<path
   d="m 67.875,25.653 c -13.851,0 -25.119,11.268 -25.119,25.119 0,13.851 11.268,25.119 25.119,25.119 13.851,0 25.119,-11.268 25.119,-25.119 0,-13.85 -11.269,-25.119 -25.119,-25.119 z m 0,34.205 c -5.01,0 -9.086,-4.076 -9.086,-9.086 0,-5.01 4.076,-9.086 9.086,-9.086 5.01,0 9.086,4.076 9.086,9.086 -0.001,5.01 -4.076,9.086 -9.086,9.086 z"
   id="path8" />
	</g>
</g>
<g
   id="g18"
   transform="matrix(0.02940131,0,0,0.03020851,2.940131e-5,3.020851e-5)">
	<g
   id="g16">
		<path
   d="m 136.284,25.653 c -13.851,0 -25.119,11.268 -25.119,25.119 0,13.851 11.268,25.119 25.119,25.119 13.851,0 25.119,-11.268 25.119,-25.119 0,-13.85 -11.268,-25.119 -25.119,-25.119 z m 0,34.205 c -5.01,0 -9.086,-4.076 -9.086,-9.086 0,-5.01 4.076,-9.086 9.086,-9.086 5.01,0 9.086,4.076 9.086,9.086 0,5.01 -4.076,9.086 -9.086,9.086 z"
   id="path14" />
	</g>
</g>
<g
   id="g24"
   transform="matrix(0.02940131,0,0,0.03020851,2.940131e-5,3.020851e-5)">
	<g
   id="g22">
		<path
   d="m 204.693,25.653 c -13.851,0 -25.119,11.268 -25.119,25.119 0,13.851 11.268,25.119 25.119,25.119 13.851,0 25.119,-11.268 25.119,-25.119 0,-13.85 -11.268,-25.119 -25.119,-25.119 z m 0,34.205 c -5.01,0 -9.086,-4.076 -9.086,-9.086 0,-5.01 4.076,-9.086 9.086,-9.086 5.01,0 9.086,4.076 9.086,9.086 0,5.01 -4.076,9.086 -9.086,9.086 z"
   id="path20" />
	</g>
</g>
<g
   id="g30"
   transform="matrix(0.02940131,0,0,0.03020851,2.940131e-5,3.020851e-5)">
	<g
   id="g28">
		<path
   d="M 384.267,350.597 H 136.284 c -4.427,0 -8.017,3.588 -8.017,8.017 v 34.205 c 0,4.428 3.589,8.017 8.017,8.017 h 247.983 c 4.428,0 8.017,-3.588 8.017,-8.017 v -34.205 c 0,-4.429 -3.588,-8.017 -8.017,-8.017 z m -8.016,34.205 H 144.301 V 366.63 h 231.95 z"
   id="path26" />
	</g>
</g>
<g
   id="g36"
   transform="matrix(0.02940131,0,0,0.03020851,2.940131e-5,3.020851e-5)">
	<g
   id="g34">
		<path
   d="M 384.267,419.006 H 136.284 c -4.427,0 -8.017,3.588 -8.017,8.017 v 34.205 c 0,4.428 3.589,8.017 8.017,8.017 h 247.983 c 4.428,0 8.017,-3.588 8.017,-8.017 v -34.205 c 0,-4.428 -3.588,-8.017 -8.017,-8.017 z m -8.016,34.205 H 144.301 V 435.04 h 231.95 z"
   id="path32" />
	</g>
</g>
<g
   id="g42"
   transform="matrix(0.02940131,0,0,0.03020851,2.940131e-5,3.020851e-5)">
	<g
   id="g40">
		<path
   d="m 461.228,42.756 h -17.102 c -4.428,0 -8.017,3.588 -8.017,8.017 0,4.428 3.588,8.017 8.017,8.017 h 17.102 c 4.428,0 8.017,-3.588 8.017,-8.017 -10e-4,-4.429 -3.589,-8.017 -8.017,-8.017 z"
   id="path38" />
	</g>
</g>
<g
   id="g48"
   transform="matrix(0.02940131,0,0,0.03020851,2.940131e-5,3.020851e-5)">
	<g
   id="g46">
		<path
   d="M 418.472,42.756 H 290.205 c -4.428,0 -8.017,3.588 -8.017,8.017 0,4.428 3.588,8.017 8.017,8.017 h 128.267 c 4.428,0 8.017,-3.588 8.017,-8.017 0,-4.429 -3.589,-8.017 -8.017,-8.017 z"
   id="path44" />
	</g>
</g>
<g
   id="g54"
   transform="matrix(0.02940131,0,0,0.03020851,2.940131e-5,3.020851e-5)">
	<g
   id="g52">
		<path
   d="m 307.307,196.676 h -0.534 v -26.188 c 0,-23.281 -18.941,-42.221 -42.221,-42.221 H 247.45 c -23.281,0 -42.221,18.941 -42.221,42.221 v 8.551 c 0,4.428 3.589,8.017 8.017,8.017 4.428,0 8.017,-3.588 8.017,-8.017 v -8.551 c 0,-14.441 11.748,-26.188 26.188,-26.188 h 17.102 c 14.441,0 26.188,11.747 26.188,26.188 v 26.188 h -86.046 c -13.851,0 -25.119,11.268 -25.119,25.119 v 102.614 c 0,4.428 3.589,8.017 8.017,8.017 h 136.818 c 4.428,0 8.017,-3.588 8.017,-8.017 V 221.795 c -0.002,-13.85 -11.27,-25.119 -25.121,-25.119 z m 9.086,119.717 H 195.608 v -94.597 c 0,-5.01 4.076,-9.086 9.086,-9.086 h 102.614 c 5.01,0 9.086,4.076 9.086,9.086 v 94.597 z"
   id="path50" />
	</g>
</g>
<g
   id="g60"
   transform="matrix(0.02940131,0,0,0.03020851,2.940131e-5,3.020851e-5)">
	<g
   id="g58">
		<path
   d="m 256,230.881 c -13.851,0 -25.119,11.268 -25.119,25.119 0,11.048 7.172,20.446 17.102,23.8 v 18.956 c 0,4.428 3.589,8.017 8.017,8.017 4.428,0 8.017,-3.588 8.017,-8.017 V 279.8 c 9.93,-3.354 17.102,-12.752 17.102,-23.8 0,-13.851 -11.268,-25.119 -25.119,-25.119 z m 0,34.205 c -5.01,0 -9.086,-4.076 -9.086,-9.086 0,-5.01 4.076,-9.086 9.086,-9.086 5.01,0 9.086,4.076 9.086,9.086 0,5.01 -4.076,9.086 -9.086,9.086 z"
   id="path56" />
	</g>
</g>
</svg>
