<?xml version="1.0" encoding="UTF-8" standalone="no"?>
<!-- Uploaded to: SVG Repo, www.svgrepo.com, Transformed by: SVG Repo Mixer Tools -->

<svg
   version="1.1"
   id="Layer_1"
   viewBox="0 0 11.734429 11.119683"
   xml:space="preserve"
   width="23.899527"
   height="22.647472"
   fill="#000000"
   sodipodi:docname="networking-connector.svg"
   inkscape:version="1.2.1 (9c6d41e410, 2022-07-14)"
   xmlns:inkscape="http://www.inkscape.org/namespaces/inkscape"
   xmlns:sodipodi="http://sodipodi.sourceforge.net/DTD/sodipodi-0.dtd"
   xmlns="http://www.w3.org/2000/svg"
   xmlns:svg="http://www.w3.org/2000/svg"><defs
   id="defs86" /><sodipodi:namedview
   id="namedview84"
   pagecolor="#ffffff"
   bordercolor="#666666"
   borderopacity="1.0"
   inkscape:showpageshadow="2"
   inkscape:pageopacity="0.0"
   inkscape:pagecheckerboard="0"
   inkscape:deskcolor="#d1d1d1"
   showgrid="false"
   inkscape:zoom="9.2913831"
   inkscape:cx="21.363881"
   inkscape:cy="18.619402"
   inkscape:window-width="1600"
   inkscape:window-height="837"
   inkscape:window-x="-8"
   inkscape:window-y="-8"
   inkscape:window-maximized="1"
   inkscape:current-layer="Layer_1" />

<g
   id="SVGRepo_bgCarrier"
   stroke-width="0"
   transform="matrix(0.04413516,0,0,0.0436677,0,-0.00423576)" />

<g
   id="SVGRepo_tracerCarrier"
   stroke-linecap="round"
   stroke-linejoin="round"
   transform="matrix(0.04413516,0,0,0.0436677,0,-0.00423576)" />

<g
   id="SVGRepo_iconCarrier"
   transform="matrix(0.02987456,0,0,0.02832333,0,-0.00274736)"> <g
   id="g10"> <rect
   x="21.851"
   y="336.97"
   style="fill:#050505"
   width="33.875"
   height="33.875"
   id="rect4" /> <rect
   x="336.93701"
   y="336.97"
   style="fill:#050505"
   width="33.875"
   height="33.875"
   id="rect6" /> <path
   style="fill:#050505"
   d="m 196.331,336.97 c -9.244,0 -16.873,7.564 -16.873,16.873 0,9.309 7.564,16.873 16.873,16.873 9.309,0 16.873,-7.564 16.873,-16.873 0,-9.31 -7.628,-16.873 -16.873,-16.873 z"
   id="path8" /> </g> <g
   id="g44"> <path
   style="fill:#ffffff"
   d="m 149.204,31.257 c -18.36,7.564 -34.521,19.329 -47.321,34.133 9.762,1.875 19.653,3.426 29.543,4.719 4.655,-15.063 10.667,-28.186 17.778,-38.852 z"
   id="path12" /> <path
   style="fill:#ffffff"
   d="m 149.204,261.786 c -7.111,-10.731 -13.123,-23.855 -17.778,-38.853 -9.891,1.293 -19.717,2.844 -29.543,4.719 12.8,14.869 28.897,26.635 47.321,34.134 z"
   id="path14" /> <path
   style="fill:#ffffff"
   d="m 72.21,135.596 h 48.485 c 0.517,-15.58 2.392,-30.448 5.172,-44.283 -12.671,-1.681 -25.277,-3.879 -37.818,-6.465 -8.663,15.257 -14.223,32.388 -15.839,50.748 z"
   id="path16" /> <path
   style="fill:#ffffff"
   d="m 185.406,24.986 c -12.024,6.465 -23.79,23.273 -31.935,47.451 10.667,0.905 21.269,1.487 31.935,1.681 z"
   id="path18" /> <path
   style="fill:#ffffff"
   d="M 120.695,157.446 H 72.21 c 1.616,18.36 7.176,35.556 15.903,50.747 12.541,-2.651 25.083,-4.784 37.818,-6.465 -2.844,-13.768 -4.719,-28.702 -5.236,-44.282 z"
   id="path20" /> <path
   style="fill:#ffffff"
   d="m 185.406,157.446 h -42.861 c 0.646,15.127 2.392,29.156 5.107,41.826 12.606,-1.164 25.212,-1.875 37.818,-2.133 v -39.693 z"
   id="path22" /> <path
   style="fill:#ffffff"
   d="m 185.406,268.057 v -49.131 c -10.667,0.259 -21.333,0.776 -31.935,1.681 8.145,24.177 19.911,40.985 31.935,47.45 z"
   id="path24" /> <path
   style="fill:#ffffff"
   d="M 185.406,95.903 C 172.8,95.644 160.194,94.869 147.588,93.77 c -2.715,12.671 -4.461,26.764 -5.107,41.826 h 42.861 V 95.903 Z"
   id="path26" /> <path
   style="fill:#ffffff"
   d="m 320.453,157.446 h -48.485 c -0.517,15.58 -2.392,30.448 -5.172,44.283 12.671,1.681 25.277,3.879 37.818,6.465 8.663,-15.257 14.287,-32.388 15.839,-50.748 z"
   id="path28" /> <path
   style="fill:#ffffff"
   d="m 271.968,135.596 h 48.485 c -1.616,-18.36 -7.176,-35.556 -15.903,-50.747 -12.541,2.651 -25.083,4.784 -37.818,6.465 2.844,13.769 4.719,28.702 5.236,44.282 z"
   id="path30" /> <path
   style="fill:#ffffff"
   d="m 290.78,227.653 c -9.762,-1.875 -19.653,-3.426 -29.543,-4.719 -4.719,14.998 -10.731,28.121 -17.778,38.853 18.424,-7.5 34.521,-19.266 47.321,-34.134 z"
   id="path32" /> <path
   style="fill:#ffffff"
   d="m 239.192,220.541 c -10.667,-0.905 -21.269,-1.422 -31.935,-1.616 v 49.131 c 12.024,-6.464 23.789,-23.337 31.935,-47.515 z"
   id="path34" /> <path
   style="fill:#ffffff"
   d="m 243.459,31.257 c 7.111,10.731 13.123,23.855 17.778,38.853 9.891,-1.293 19.717,-2.844 29.543,-4.719 -12.8,-14.87 -28.897,-26.635 -47.321,-34.134 z"
   id="path36" /> <path
   style="fill:#ffffff"
   d="m 207.257,197.139 c 12.606,0.259 25.212,1.034 37.818,2.133 2.715,-12.671 4.461,-26.764 5.107,-41.826 h -42.861 v 39.693 z"
   id="path38" /> <path
   style="fill:#ffffff"
   d="m 207.257,135.596 h 42.861 c -0.646,-15.127 -2.392,-29.156 -5.107,-41.826 -12.606,1.164 -25.212,1.875 -37.818,2.133 v 39.693 z"
   id="path40" /> <path
   style="fill:#ffffff"
   d="m 207.257,24.986 v 49.131 c 10.667,-0.259 21.333,-0.776 31.935,-1.681 -8.146,-24.177 -19.911,-40.985 -31.935,-47.45 z"
   id="path42" /> </g> <path
   style="fill:#f66213"
   d="m 381.737,315.184 h -55.661 c -6.012,0 -10.925,4.848 -10.925,10.925 v 16.873 h -81.778 c -3.685,-12.541 -13.576,-22.303 -26.117,-26.053 V 292.493 C 282.892,286.869 342.82,223.58 342.82,146.521 342.756,65.778 277.075,0.097 196.331,0.097 c -80.744,0 -146.424,65.681 -146.424,146.424 0,77.059 59.863,140.412 135.564,145.972 v 24.436 c -12.541,3.685 -22.432,13.511 -26.117,26.053 H 77.511 v -16.873 c 0,-6.012 -4.848,-10.925 -10.925,-10.925 H 10.925 C 4.913,315.184 0,320.032 0,326.109 v 55.661 c 0,6.012 4.848,10.925 10.925,10.925 h 55.661 c 6.012,0 10.925,-4.848 10.925,-10.925 v -17.002 h 81.842 c 4.719,15.968 19.523,27.733 37.042,27.733 17.519,0 32.323,-11.766 37.042,-27.733 h 81.842 v 17.002 c 0,6.012 4.849,10.925 10.925,10.925 h 55.661 c 6.012,0 10.925,-4.848 10.925,-10.925 v -55.661 c -0.192,-6.012 -5.041,-10.925 -11.053,-10.925 z M 55.725,370.844 H 21.851 V 336.97 h 33.875 v 33.874 z M 72.21,157.446 h 48.485 c 0.517,15.58 2.392,30.448 5.172,44.283 -12.671,1.681 -25.277,3.879 -37.818,6.465 C 79.386,192.937 73.826,175.806 72.21,157.446 Z m 75.443,41.762 c -2.715,-12.671 -4.461,-26.764 -5.107,-41.826 h 42.861 v 39.693 c -12.542,0.323 -25.148,0.969 -37.754,2.133 z m 37.753,19.717 v 49.131 c -12.024,-6.465 -23.79,-23.273 -31.935,-47.451 10.666,-0.904 21.333,-1.421 31.935,-1.68 z m -42.861,-83.329 c 0.646,-15.127 2.392,-29.156 5.107,-41.826 12.606,1.164 25.212,1.875 37.818,2.133 v 39.693 h -42.86 v 0 z m 10.926,-63.16 c 8.21,-24.178 19.846,-40.986 31.935,-47.451 v 49.131 c -10.602,-0.257 -21.269,-0.775 -31.935,-1.68 z m -4.267,-41.179 c -7.111,10.731 -13.123,23.855 -17.778,38.853 -9.891,-1.293 -19.717,-2.844 -29.543,-4.719 12.8,-14.87 28.897,-26.635 47.321,-34.134 z m -23.337,60.121 c -2.844,13.77 -4.655,28.638 -5.172,44.283 H 72.21 c 1.616,-18.36 7.176,-35.556 15.903,-50.747 12.477,2.585 25.083,4.718 37.754,6.464 z m 5.495,131.62 c 4.719,14.998 10.731,28.121 17.778,38.853 -18.36,-7.564 -34.521,-19.329 -47.321,-34.133 9.825,-1.94 19.652,-3.427 29.543,-4.72 z m 189.091,-87.402 h -48.485 c -0.517,-15.58 -2.392,-30.448 -5.172,-44.283 12.671,-1.681 25.277,-3.879 37.818,-6.465 8.663,15.257 14.287,32.388 15.839,50.748 z M 245.01,93.834 c 2.715,12.671 4.461,26.764 5.107,41.826 H 207.256 V 95.968 c 12.542,-0.259 25.148,-0.97 37.754,-2.134 z M 207.257,74.117 V 24.986 c 12.024,6.465 23.79,23.273 31.935,47.451 -10.667,0.904 -21.333,1.422 -31.935,1.68 z m 42.86,83.329 c -0.646,15.127 -2.392,29.156 -5.107,41.826 -12.606,-1.164 -25.212,-1.875 -37.818,-2.133 v -39.693 h 42.861 v 0 z m 11.184,65.487 c 9.891,1.293 19.717,2.844 29.543,4.719 -12.735,14.869 -28.897,26.634 -47.321,34.133 7.047,-10.73 13.059,-23.854 17.778,-38.852 z m 5.495,-21.268 c 2.844,-13.77 4.655,-28.638 5.172,-44.283 h 48.485 c -1.616,18.36 -7.176,35.556 -15.903,50.747 -12.477,-2.586 -25.083,-4.719 -37.754,-6.464 z M 261.301,70.044 C 256.582,55.046 250.57,41.923 243.523,31.191 c 18.36,7.564 34.521,19.329 47.321,34.133 -9.826,1.941 -19.652,3.492 -29.543,4.72 z m -54.044,148.881 c 10.667,0.259 21.333,0.776 31.935,1.616 -8.21,24.178 -19.846,40.986 -31.935,47.451 z m -10.926,151.661 c -9.244,0 -16.873,-7.564 -16.873,-16.873 0,-9.309 7.564,-16.743 16.873,-16.743 9.309,0 16.873,7.564 16.873,16.873 0,9.308 -7.628,16.743 -16.873,16.743 z m 174.481,0.258 H 336.937 V 336.97 h 33.875 z"
   id="path46" /> <g
   id="g80"> <path
   style="fill:#050505"
   d="m 207.257,135.596 h 42.861 c -0.646,-15.127 -2.392,-29.156 -5.107,-41.826 -12.606,1.164 -25.212,1.875 -37.818,2.133 v 39.693 z"
   id="path48" /> <path
   style="fill:#050505"
   d="m 153.535,220.606 c 3.038,8.792 6.4,16.614 10.214,23.337 6.982,2.327 14.222,4.008 21.721,4.784 v -29.802 c -10.666,0.259 -21.333,0.776 -31.935,1.681 z"
   id="path50" /> <path
   style="fill:#050505"
   d="m 207.257,197.139 c 12.606,0.259 25.212,1.034 37.818,2.133 2.715,-12.671 4.461,-26.764 5.107,-41.826 h -42.861 v 39.693 z"
   id="path52" /> <path
   style="fill:#050505"
   d="m 207.257,248.727 c 7.499,-0.776 14.739,-2.457 21.721,-4.784 3.814,-6.723 7.24,-14.545 10.214,-23.337 -10.667,-0.905 -21.269,-1.422 -31.935,-1.616 z"
   id="path54" /> <path
   style="fill:#050505"
   d="m 120.695,157.446 h -26.57 c 1.745,17.067 7.822,32.97 17.002,46.545 4.913,-0.776 9.826,-1.616 14.739,-2.263 -2.779,-13.768 -4.654,-28.702 -5.171,-44.282 z"
   id="path56" /> <path
   style="fill:#050505"
   d="m 259.879,227.2 c 1.552,-1.228 3.038,-2.457 4.461,-3.814 -1.034,-0.129 -2.004,-0.323 -3.038,-0.453 -0.454,1.487 -0.971,2.845 -1.423,4.267 z"
   id="path58" /> <path
   style="fill:#050505"
   d="m 264.339,69.657 c -1.487,-1.293 -2.909,-2.521 -4.461,-3.814 0.453,1.422 1.034,2.78 1.487,4.267 0.97,-0.195 1.94,-0.324 2.974,-0.453 z"
   id="path60" /> <path
   style="fill:#050505"
   d="m 266.796,201.665 c 4.913,0.711 9.891,1.487 14.739,2.263 9.18,-13.576 15.127,-29.414 17.002,-46.545 h -26.57 c -0.516,15.643 -2.391,30.577 -5.171,44.282 z"
   id="path62" /> <path
   style="fill:#050505"
   d="M 185.406,74.117 V 44.315 c -7.499,0.776 -14.739,2.457 -21.721,4.784 -3.814,6.723 -7.24,14.545 -10.214,23.337 10.666,0.905 21.333,1.423 31.935,1.681 z"
   id="path64" /> <path
   style="fill:#050505"
   d="m 239.192,72.436 c -3.038,-8.792 -6.4,-16.614 -10.214,-23.337 -6.982,-2.327 -14.222,-4.008 -21.721,-4.784 v 29.802 c 10.602,-0.258 21.268,-0.776 31.935,-1.681 z"
   id="path66" /> <path
   style="fill:#050505"
   d="m 271.968,135.596 h 26.57 c -1.745,-17.067 -7.822,-32.97 -17.002,-46.545 -4.913,0.776 -9.826,1.616 -14.739,2.263 2.779,13.769 4.654,28.702 5.171,44.282 z"
   id="path68" /> <path
   style="fill:#050505"
   d="m 128.323,223.386 c 1.487,1.293 2.909,2.521 4.461,3.814 -0.453,-1.422 -1.034,-2.78 -1.487,-4.267 -0.97,0.194 -1.939,0.324 -2.974,0.453 z"
   id="path70" /> <path
   style="fill:#050505"
   d="m 120.695,135.596 c 0.517,-15.58 2.392,-30.448 5.172,-44.283 -4.913,-0.711 -9.891,-1.487 -14.739,-2.263 -9.18,13.576 -15.127,29.414 -17.002,46.545 h 26.569 z"
   id="path72" /> <path
   style="fill:#050505"
   d="m 132.784,65.842 c -1.551,1.228 -3.038,2.457 -4.461,3.814 1.034,0.129 2.004,0.323 3.038,0.453 0.453,-1.487 0.97,-2.844 1.423,-4.267 z"
   id="path74" /> <path
   style="fill:#050505"
   d="m 147.653,199.208 c 12.606,-1.164 25.212,-1.875 37.818,-2.133 V 157.382 H 142.61 c 0.582,15.192 2.327,29.155 5.043,41.826 z"
   id="path76" /> <path
   style="fill:#050505"
   d="M 185.406,95.903 C 172.8,95.644 160.194,94.869 147.588,93.77 c -2.715,12.671 -4.461,26.764 -5.107,41.826 h 42.861 V 95.903 Z"
   id="path78" /> </g> </g>

</svg>
