<?xml version="1.0" encoding="UTF-8" standalone="no"?>
<!-- Uploaded to: SVG Repo, www.svgrepo.com, Generator: SVG Repo Mixer Tools -->

<svg
   version="1.1"
   id="_x36_"
   viewBox="0 0 23.672074 23.778166"
   xml:space="preserve"
   sodipodi:docname="server-network.svg"
   width="23.672073"
   height="23.778166"
   inkscape:version="1.2.1 (9c6d41e410, 2022-07-14)"
   xmlns:inkscape="http://www.inkscape.org/namespaces/inkscape"
   xmlns:sodipodi="http://sodipodi.sourceforge.net/DTD/sodipodi-0.dtd"
   xmlns="http://www.w3.org/2000/svg"
   xmlns:svg="http://www.w3.org/2000/svg"><defs
   id="defs5306">
	
	
	

		
		
	
			
			
		
			
			
			
			
			
			
			
			
			
			
			
			
			
			
			
			
			
			
			
			
			
			
			
			
			
		</defs><sodipodi:namedview
   id="namedview5304"
   pagecolor="#ffffff"
   bordercolor="#666666"
   borderopacity="1.0"
   inkscape:showpageshadow="2"
   inkscape:pageopacity="0.0"
   inkscape:pagecheckerboard="0"
   inkscape:deskcolor="#d1d1d1"
   showgrid="false"
   inkscape:zoom="14.517786"
   inkscape:cx="3.891778"
   inkscape:cy="13.225157"
   inkscape:window-width="1600"
   inkscape:window-height="837"
   inkscape:window-x="-8"
   inkscape:window-y="-8"
   inkscape:window-maximized="1"
   inkscape:current-layer="_x36_" />
<polygon
   style="fill:none"
   points="360.241,140.527 380.083,120.685 275.211,120.685 275.211,140.527 "
   id="polygon5117"
   transform="scale(0.04623452,0.04856602)" /><polygon
   style="fill:none"
   points="232.234,268.534 219.714,281.054 232.234,281.054 "
   id="polygon5119"
   transform="scale(0.04623452,0.04856602)" /><rect
   x="10.738153"
   y="3.3586802"
   style="fill:#718176;stroke-width:0.0473859"
   width="1.9872521"
   height="18.331972"
   id="rect5121" /><polygon
   style="fill:#ff6600"
   points="76.861,489.564 232.234,489.564 232.234,446.588 56.146,446.588 "
   id="polygon5123"
   transform="scale(0.04623452,0.04856602)" /><polygon
   style="fill:#ff6600"
   points="275.21,489.564 435.111,489.564 455.826,446.588 275.21,446.588 "
   id="polygon5125"
   transform="scale(0.04623452,0.04856602)" /><rect
   x="10.737227"
   y="21.689003"
   style="fill:#979696;stroke-width:0.0473859"
   width="1.987021"
   height="2.0872219"
   id="rect5127" /><path
   style="fill:#718176;stroke-width:0.0473859"
   d="m 23.67078,0.3806119 v 5.1018604 c 0,0.2095624 -0.161128,0.378815 -0.36063,0.378815 H 0.36062926 C 0.1611273,5.8612873 0,5.6920347 0,5.4824723 V 0.3806119 C 0,0.17104952 0.1611273,0.00184551 0.36062926,0.00184551 H 23.31015 c 0.199502,-4.857e-5 0.36063,0.16920401 0.36063,0.37876639 z"
   id="path5129" /><path
   style="fill:#718176;stroke-width:0.0473859"
   d="m 23.67078,7.203215 v 5.10186 c 0,0.209563 -0.161128,0.382846 -0.36063,0.382846 H 0.36062926 C 0.1611273,12.687921 0,12.514638 0,12.305075 V 7.203215 C 0,6.9936526 0.1611273,6.8244 0.36062926,6.8244 H 23.31015 c 0.199502,0 0.36063,0.1692526 0.36063,0.378815 z"
   id="path5131" /><path
   style="fill:#718176;stroke-width:0.0473859"
   d="m 23.67078,14.029849 v 5.10186 c 0,0.209563 -0.161128,0.378767 -0.36063,0.378767 H 0.36062926 C 0.1611273,19.510476 0,19.341272 0,19.131709 v -5.10186 C 0,13.820335 0.1611273,13.651083 0.36062926,13.651083 H 23.31015 c 0.199502,-4.9e-5 0.36063,0.169252 0.36063,0.378766 z"
   id="path5133" /><path
   style="fill:#ff6600;stroke-width:0.0473859"
   d="M 22.767126,0.30421755 H 0.90365369 c -0.33986995,0 -0.61538146,0.28940491 -0.61538146,0.64641373 V 4.910656 c 0,0.3570088 0.27551151,0.6463651 0.61538146,0.6463651 H 22.767126 c 0.33987,0 0.615381,-0.2894049 0.615381,-0.6463651 V 0.95058271 c 0,-0.35700881 -0.275511,-0.64636516 -0.615381,-0.64636516 z"
   id="path5135" /><path
   style="fill:#ff6600;stroke-width:0.0473859"
   d="M 22.767126,7.1290061 H 0.90365369 c -0.33986995,0 -0.61538146,0.2894049 -0.61538146,0.6464137 v 3.9600252 c 0,0.357008 0.27551151,0.646413 0.61538146,0.646413 H 22.767126 c 0.33987,0 0.615381,-0.289405 0.615381,-0.646413 V 7.7754198 c 0,-0.3570088 -0.275511,-0.6464137 -0.615381,-0.6464137 z"
   id="path5137" /><path
   style="fill:#ff6600;stroke-width:0.0473859"
   d="M 22.767126,13.953892 H 0.90365369 c -0.33986995,0 -0.61538146,0.289405 -0.61538146,0.646413 v 3.960025 c 0,0.357009 0.27551151,0.646414 0.61538146,0.646414 H 22.767126 c 0.33987,0 0.615381,-0.289405 0.615381,-0.646414 v -3.960025 c 0,-0.357057 -0.275511,-0.646413 -0.615381,-0.646413 z"
   id="path5139" /><g
   id="g5181"
   transform="scale(0.04623452,0.04856602)">
				<g
   id="g5147">
					<path
   style="fill:#718176"
   d="M 57.355,26.558 H 43.829 c -1.169,0 -2.116,0.947 -2.116,2.116 v 13.548 c 0,1.169 0.948,2.116 2.116,2.116 h 13.526 c 1.169,0 2.116,-0.948 2.116,-2.116 V 28.674 c 0,-1.169 -0.947,-2.116 -2.116,-2.116 z"
   id="path5141" />
					<path
   style="fill:#718176"
   d="M 57.355,52.308 H 43.829 c -1.169,0 -2.116,0.947 -2.116,2.116 v 13.548 c 0,1.169 0.948,2.116 2.116,2.116 h 13.526 c 1.169,0 2.116,-0.948 2.116,-2.116 V 54.424 c 0,-1.168 -0.947,-2.116 -2.116,-2.116 z"
   id="path5143" />
					<path
   style="fill:#718176"
   d="M 57.355,78.059 H 43.829 c -1.169,0 -2.116,0.948 -2.116,2.116 v 13.548 c 0,1.169 0.948,2.116 2.116,2.116 h 13.526 c 1.169,0 2.116,-0.948 2.116,-2.116 V 80.175 c 0,-1.169 -0.947,-2.116 -2.116,-2.116 z"
   id="path5145" />
				</g>
				<g
   id="g5155">
					<path
   style="fill:#718176"
   d="M 89.021,26.558 H 75.495 c -1.169,0 -2.116,0.947 -2.116,2.116 v 13.548 c 0,1.169 0.948,2.116 2.116,2.116 h 13.526 c 1.169,0 2.116,-0.948 2.116,-2.116 V 28.674 c 0,-1.169 -0.947,-2.116 -2.116,-2.116 z"
   id="path5149" />
					<path
   style="fill:#718176"
   d="M 89.021,52.308 H 75.495 c -1.169,0 -2.116,0.947 -2.116,2.116 v 13.548 c 0,1.169 0.948,2.116 2.116,2.116 h 13.526 c 1.169,0 2.116,-0.948 2.116,-2.116 V 54.424 c 0,-1.168 -0.947,-2.116 -2.116,-2.116 z"
   id="path5151" />
					<path
   style="fill:#718176"
   d="M 89.021,78.059 H 75.495 c -1.169,0 -2.116,0.948 -2.116,2.116 v 13.548 c 0,1.169 0.948,2.116 2.116,2.116 h 13.526 c 1.169,0 2.116,-0.948 2.116,-2.116 V 80.175 c 0,-1.169 -0.947,-2.116 -2.116,-2.116 z"
   id="path5153" />
				</g>
				<g
   id="g5163">
					<path
   style="fill:#718176"
   d="m 120.687,26.558 h -13.525 c -1.169,0 -2.116,0.947 -2.116,2.116 v 13.548 c 0,1.169 0.948,2.116 2.116,2.116 h 13.525 c 1.169,0 2.116,-0.948 2.116,-2.116 V 28.674 c 0.001,-1.169 -0.947,-2.116 -2.116,-2.116 z"
   id="path5157" />
					<path
   style="fill:#718176"
   d="m 120.687,52.308 h -13.525 c -1.169,0 -2.116,0.947 -2.116,2.116 v 13.548 c 0,1.169 0.948,2.116 2.116,2.116 h 13.525 c 1.169,0 2.116,-0.948 2.116,-2.116 V 54.424 c 0.001,-1.168 -0.947,-2.116 -2.116,-2.116 z"
   id="path5159" />
					<path
   style="fill:#718176"
   d="m 120.687,78.059 h -13.525 c -1.169,0 -2.116,0.948 -2.116,2.116 v 13.548 c 0,1.169 0.948,2.116 2.116,2.116 h 13.525 c 1.169,0 2.116,-0.948 2.116,-2.116 V 80.175 c 0.001,-1.169 -0.947,-2.116 -2.116,-2.116 z"
   id="path5161" />
				</g>
				<g
   id="g5171">
					<path
   style="fill:#718176"
   d="m 152.354,26.558 h -13.526 c -1.169,0 -2.116,0.947 -2.116,2.116 v 13.548 c 0,1.169 0.947,2.116 2.116,2.116 h 13.526 c 1.169,0 2.116,-0.948 2.116,-2.116 V 28.674 c 0,-1.169 -0.948,-2.116 -2.116,-2.116 z"
   id="path5165" />
					<path
   style="fill:#718176"
   d="m 152.354,52.308 h -13.526 c -1.169,0 -2.116,0.947 -2.116,2.116 v 13.548 c 0,1.169 0.947,2.116 2.116,2.116 h 13.526 c 1.169,0 2.116,-0.948 2.116,-2.116 V 54.424 c 0,-1.168 -0.948,-2.116 -2.116,-2.116 z"
   id="path5167" />
					<path
   style="fill:#718176"
   d="m 152.354,78.059 h -13.526 c -1.169,0 -2.116,0.948 -2.116,2.116 v 13.548 c 0,1.169 0.947,2.116 2.116,2.116 h 13.526 c 1.169,0 2.116,-0.948 2.116,-2.116 V 80.175 c 0,-1.169 -0.948,-2.116 -2.116,-2.116 z"
   id="path5169" />
				</g>
				<g
   id="g5179">
					<path
   style="fill:#718176"
   d="m 184.02,26.558 h -13.526 c -1.169,0 -2.116,0.947 -2.116,2.116 v 13.548 c 0,1.169 0.947,2.116 2.116,2.116 h 13.526 c 1.169,0 2.116,-0.948 2.116,-2.116 V 28.674 c 0,-1.169 -0.948,-2.116 -2.116,-2.116 z"
   id="path5173" />
					<path
   style="fill:#718176"
   d="m 184.02,52.308 h -13.526 c -1.169,0 -2.116,0.947 -2.116,2.116 v 13.548 c 0,1.169 0.947,2.116 2.116,2.116 h 13.526 c 1.169,0 2.116,-0.948 2.116,-2.116 V 54.424 c 0,-1.168 -0.948,-2.116 -2.116,-2.116 z"
   id="path5175" />
					<path
   style="fill:#718176"
   d="m 184.02,78.059 h -13.526 c -1.169,0 -2.116,0.948 -2.116,2.116 v 13.548 c 0,1.169 0.947,2.116 2.116,2.116 h 13.526 c 1.169,0 2.116,-0.948 2.116,-2.116 V 80.175 c 0,-1.169 -0.948,-2.116 -2.116,-2.116 z"
   id="path5177" />
				</g>
			</g><rect
   x="10.407576"
   y="2.415771"
   style="fill:#979696;stroke-width:0.0473859"
   width="4.6332998"
   height="1.0296967"
   id="rect5183" /><ellipse
   style="fill:#43b471;stroke-width:0.0473859"
   cx="17.076166"
   cy="2.9721434"
   id="circle5185"
   rx="0.90097207"
   ry="0.94640601" /><ellipse
   style="fill:#d3d340;stroke-width:0.0473859"
   cx="19.264214"
   cy="2.9721434"
   id="circle5187"
   rx="0.90097207"
   ry="0.94640601" /><ellipse
   style="fill:#d15075;stroke-width:0.0473859"
   cx="21.452309"
   cy="2.9721434"
   id="circle5189"
   rx="0.90097207"
   ry="0.94640601" /><g
   id="g5231"
   transform="scale(0.04623452,0.04856602)">
				<g
   id="g5197">
					<path
   style="fill:#718176"
   d="M 57.355,167.084 H 43.829 c -1.169,0 -2.116,0.948 -2.116,2.116 v 13.548 c 0,1.169 0.948,2.116 2.116,2.116 h 13.526 c 1.169,0 2.116,-0.948 2.116,-2.116 V 169.2 c 0,-1.168 -0.947,-2.116 -2.116,-2.116 z"
   id="path5191" />
					<path
   style="fill:#718176"
   d="M 57.355,192.835 H 43.829 c -1.169,0 -2.116,0.947 -2.116,2.116 v 13.548 c 0,1.169 0.948,2.116 2.116,2.116 h 13.526 c 1.169,0 2.116,-0.948 2.116,-2.116 v -13.548 c 0,-1.168 -0.947,-2.116 -2.116,-2.116 z"
   id="path5193" />
					<path
   style="fill:#718176"
   d="M 57.355,218.585 H 43.829 c -1.169,0 -2.116,0.948 -2.116,2.116 v 13.548 c 0,1.169 0.948,2.116 2.116,2.116 h 13.526 c 1.169,0 2.116,-0.948 2.116,-2.116 v -13.548 c 0,-1.168 -0.947,-2.116 -2.116,-2.116 z"
   id="path5195" />
				</g>
				<g
   id="g5205">
					<path
   style="fill:#718176"
   d="M 89.021,167.084 H 75.495 c -1.169,0 -2.116,0.948 -2.116,2.116 v 13.548 c 0,1.169 0.948,2.116 2.116,2.116 h 13.526 c 1.169,0 2.116,-0.948 2.116,-2.116 V 169.2 c 0,-1.168 -0.947,-2.116 -2.116,-2.116 z"
   id="path5199" />
					<path
   style="fill:#718176"
   d="M 89.021,192.835 H 75.495 c -1.169,0 -2.116,0.947 -2.116,2.116 v 13.548 c 0,1.169 0.948,2.116 2.116,2.116 h 13.526 c 1.169,0 2.116,-0.948 2.116,-2.116 v -13.548 c 0,-1.168 -0.947,-2.116 -2.116,-2.116 z"
   id="path5201" />
					<path
   style="fill:#718176"
   d="M 89.021,218.585 H 75.495 c -1.169,0 -2.116,0.948 -2.116,2.116 v 13.548 c 0,1.169 0.948,2.116 2.116,2.116 h 13.526 c 1.169,0 2.116,-0.948 2.116,-2.116 v -13.548 c 0,-1.168 -0.947,-2.116 -2.116,-2.116 z"
   id="path5203" />
				</g>
				<g
   id="g5213">
					<path
   style="fill:#718176"
   d="m 120.687,167.084 h -13.525 c -1.169,0 -2.116,0.948 -2.116,2.116 v 13.548 c 0,1.169 0.948,2.116 2.116,2.116 h 13.525 c 1.169,0 2.116,-0.948 2.116,-2.116 V 169.2 c 0.001,-1.168 -0.947,-2.116 -2.116,-2.116 z"
   id="path5207" />
					<path
   style="fill:#718176"
   d="m 120.687,192.835 h -13.525 c -1.169,0 -2.116,0.947 -2.116,2.116 v 13.548 c 0,1.169 0.948,2.116 2.116,2.116 h 13.525 c 1.169,0 2.116,-0.948 2.116,-2.116 v -13.548 c 0.001,-1.168 -0.947,-2.116 -2.116,-2.116 z"
   id="path5209" />
					<path
   style="fill:#718176"
   d="m 120.687,218.585 h -13.525 c -1.169,0 -2.116,0.948 -2.116,2.116 v 13.548 c 0,1.169 0.948,2.116 2.116,2.116 h 13.525 c 1.169,0 2.116,-0.948 2.116,-2.116 v -13.548 c 0.001,-1.168 -0.947,-2.116 -2.116,-2.116 z"
   id="path5211" />
				</g>
				<g
   id="g5221">
					<path
   style="fill:#718176"
   d="m 152.354,167.084 h -13.526 c -1.169,0 -2.116,0.948 -2.116,2.116 v 13.548 c 0,1.169 0.947,2.116 2.116,2.116 h 13.526 c 1.169,0 2.116,-0.948 2.116,-2.116 V 169.2 c 0,-1.168 -0.948,-2.116 -2.116,-2.116 z"
   id="path5215" />
					<path
   style="fill:#718176"
   d="m 152.354,192.835 h -13.526 c -1.169,0 -2.116,0.947 -2.116,2.116 v 13.548 c 0,1.169 0.947,2.116 2.116,2.116 h 13.526 c 1.169,0 2.116,-0.948 2.116,-2.116 v -13.548 c 0,-1.168 -0.948,-2.116 -2.116,-2.116 z"
   id="path5217" />
					<path
   style="fill:#718176"
   d="m 152.354,218.585 h -13.526 c -1.169,0 -2.116,0.948 -2.116,2.116 v 13.548 c 0,1.169 0.947,2.116 2.116,2.116 h 13.526 c 1.169,0 2.116,-0.948 2.116,-2.116 v -13.548 c 0,-1.168 -0.948,-2.116 -2.116,-2.116 z"
   id="path5219" />
				</g>
				<g
   id="g5229">
					<path
   style="fill:#718176"
   d="m 184.02,167.084 h -13.526 c -1.169,0 -2.116,0.948 -2.116,2.116 v 13.548 c 0,1.169 0.947,2.116 2.116,2.116 h 13.526 c 1.169,0 2.116,-0.948 2.116,-2.116 V 169.2 c 0,-1.168 -0.948,-2.116 -2.116,-2.116 z"
   id="path5223" />
					<path
   style="fill:#718176"
   d="m 184.02,192.835 h -13.526 c -1.169,0 -2.116,0.947 -2.116,2.116 v 13.548 c 0,1.169 0.947,2.116 2.116,2.116 h 13.526 c 1.169,0 2.116,-0.948 2.116,-2.116 v -13.548 c 0,-1.168 -0.948,-2.116 -2.116,-2.116 z"
   id="path5225" />
					<path
   style="fill:#718176"
   d="m 184.02,218.585 h -13.526 c -1.169,0 -2.116,0.948 -2.116,2.116 v 13.548 c 0,1.169 0.947,2.116 2.116,2.116 h 13.526 c 1.169,0 2.116,-0.948 2.116,-2.116 v -13.548 c 0,-1.168 -0.948,-2.116 -2.116,-2.116 z"
   id="path5227" />
				</g>
			</g><rect
   x="10.407576"
   y="9.2406082"
   style="fill:#979696;stroke-width:0.0473859"
   width="4.6332998"
   height="1.0296967"
   id="rect5233" /><ellipse
   style="fill:#43b471;stroke-width:0.0473859"
   cx="17.076166"
   cy="9.7969809"
   id="circle5235"
   rx="0.90097207"
   ry="0.94640601" /><ellipse
   style="fill:#d3d340;stroke-width:0.0473859"
   cx="19.264214"
   cy="9.7969809"
   id="circle5237"
   rx="0.90097207"
   ry="0.94640601" /><ellipse
   style="fill:#d15075;stroke-width:0.0473859"
   cx="21.452309"
   cy="9.7969809"
   id="circle5239"
   rx="0.90097207"
   ry="0.94640601" /><g
   id="g5281"
   transform="scale(0.04623452,0.04856602)">
				<g
   id="g5247">
					<path
   style="fill:#718176"
   d="M 57.355,307.611 H 43.829 c -1.169,0 -2.116,0.948 -2.116,2.116 v 13.548 c 0,1.169 0.948,2.116 2.116,2.116 h 13.526 c 1.169,0 2.116,-0.948 2.116,-2.116 v -13.548 c 0,-1.168 -0.947,-2.116 -2.116,-2.116 z"
   id="path5241" />
					<path
   style="fill:#718176"
   d="M 57.355,333.362 H 43.829 c -1.169,0 -2.116,0.947 -2.116,2.116 v 13.548 c 0,1.169 0.948,2.116 2.116,2.116 h 13.526 c 1.169,0 2.116,-0.947 2.116,-2.116 v -13.548 c 0,-1.169 -0.947,-2.116 -2.116,-2.116 z"
   id="path5243" />
					<path
   style="fill:#718176"
   d="M 57.355,359.112 H 43.829 c -1.169,0 -2.116,0.948 -2.116,2.116 v 13.548 c 0,1.169 0.948,2.116 2.116,2.116 h 13.526 c 1.169,0 2.116,-0.948 2.116,-2.116 v -13.548 c 0,-1.168 -0.947,-2.116 -2.116,-2.116 z"
   id="path5245" />
				</g>
				<g
   id="g5255">
					<path
   style="fill:#718176"
   d="M 89.021,307.611 H 75.495 c -1.169,0 -2.116,0.948 -2.116,2.116 v 13.548 c 0,1.169 0.948,2.116 2.116,2.116 h 13.526 c 1.169,0 2.116,-0.948 2.116,-2.116 v -13.548 c 0,-1.168 -0.947,-2.116 -2.116,-2.116 z"
   id="path5249" />
					<path
   style="fill:#718176"
   d="M 89.021,333.362 H 75.495 c -1.169,0 -2.116,0.947 -2.116,2.116 v 13.548 c 0,1.169 0.948,2.116 2.116,2.116 h 13.526 c 1.169,0 2.116,-0.947 2.116,-2.116 v -13.548 c 0,-1.169 -0.947,-2.116 -2.116,-2.116 z"
   id="path5251" />
					<path
   style="fill:#718176"
   d="M 89.021,359.112 H 75.495 c -1.169,0 -2.116,0.948 -2.116,2.116 v 13.548 c 0,1.169 0.948,2.116 2.116,2.116 h 13.526 c 1.169,0 2.116,-0.948 2.116,-2.116 v -13.548 c 0,-1.168 -0.947,-2.116 -2.116,-2.116 z"
   id="path5253" />
				</g>
				<g
   id="g5263">
					<path
   style="fill:#718176"
   d="m 120.687,307.611 h -13.525 c -1.169,0 -2.116,0.948 -2.116,2.116 v 13.548 c 0,1.169 0.948,2.116 2.116,2.116 h 13.525 c 1.169,0 2.116,-0.948 2.116,-2.116 v -13.548 c 0.001,-1.168 -0.947,-2.116 -2.116,-2.116 z"
   id="path5257" />
					<path
   style="fill:#718176"
   d="m 120.687,333.362 h -13.525 c -1.169,0 -2.116,0.947 -2.116,2.116 v 13.548 c 0,1.169 0.948,2.116 2.116,2.116 h 13.525 c 1.169,0 2.116,-0.947 2.116,-2.116 v -13.548 c 0.001,-1.169 -0.947,-2.116 -2.116,-2.116 z"
   id="path5259" />
					<path
   style="fill:#718176"
   d="m 120.687,359.112 h -13.525 c -1.169,0 -2.116,0.948 -2.116,2.116 v 13.548 c 0,1.169 0.948,2.116 2.116,2.116 h 13.525 c 1.169,0 2.116,-0.948 2.116,-2.116 v -13.548 c 0.001,-1.168 -0.947,-2.116 -2.116,-2.116 z"
   id="path5261" />
				</g>
				<g
   id="g5271">
					<path
   style="fill:#718176"
   d="m 152.354,307.611 h -13.526 c -1.169,0 -2.116,0.948 -2.116,2.116 v 13.548 c 0,1.169 0.947,2.116 2.116,2.116 h 13.526 c 1.169,0 2.116,-0.948 2.116,-2.116 v -13.548 c 0,-1.168 -0.948,-2.116 -2.116,-2.116 z"
   id="path5265" />
					<path
   style="fill:#718176"
   d="m 152.354,333.362 h -13.526 c -1.169,0 -2.116,0.947 -2.116,2.116 v 13.548 c 0,1.169 0.947,2.116 2.116,2.116 h 13.526 c 1.169,0 2.116,-0.947 2.116,-2.116 v -13.548 c 0,-1.169 -0.948,-2.116 -2.116,-2.116 z"
   id="path5267" />
					<path
   style="fill:#718176"
   d="m 152.354,359.112 h -13.526 c -1.169,0 -2.116,0.948 -2.116,2.116 v 13.548 c 0,1.169 0.947,2.116 2.116,2.116 h 13.526 c 1.169,0 2.116,-0.948 2.116,-2.116 v -13.548 c 0,-1.168 -0.948,-2.116 -2.116,-2.116 z"
   id="path5269" />
				</g>
				<g
   id="g5279">
					<path
   style="fill:#718176"
   d="m 184.02,307.611 h -13.526 c -1.169,0 -2.116,0.948 -2.116,2.116 v 13.548 c 0,1.169 0.947,2.116 2.116,2.116 h 13.526 c 1.169,0 2.116,-0.948 2.116,-2.116 v -13.548 c 0,-1.168 -0.948,-2.116 -2.116,-2.116 z"
   id="path5273" />
					<path
   style="fill:#718176"
   d="m 184.02,333.362 h -13.526 c -1.169,0 -2.116,0.947 -2.116,2.116 v 13.548 c 0,1.169 0.947,2.116 2.116,2.116 h 13.526 c 1.169,0 2.116,-0.947 2.116,-2.116 v -13.548 c 0,-1.169 -0.948,-2.116 -2.116,-2.116 z"
   id="path5275" />
					<path
   style="fill:#718176"
   d="m 184.02,359.112 h -13.526 c -1.169,0 -2.116,0.948 -2.116,2.116 v 13.548 c 0,1.169 0.947,2.116 2.116,2.116 h 13.526 c 1.169,0 2.116,-0.948 2.116,-2.116 v -13.548 c 0,-1.168 -0.948,-2.116 -2.116,-2.116 z"
   id="path5277" />
				</g>
			</g><rect
   x="10.407576"
   y="16.065445"
   style="fill:#979696;stroke-width:0.0473859"
   width="4.6332998"
   height="1.0296967"
   id="rect5283" /><ellipse
   style="fill:#43b471;stroke-width:0.0473859"
   cx="17.076166"
   cy="16.621819"
   id="circle5285"
   rx="0.90097207"
   ry="0.94640601" /><ellipse
   style="fill:#d3d340;stroke-width:0.0473859"
   cx="19.264214"
   cy="16.621819"
   id="circle5287"
   rx="0.90097207"
   ry="0.94640601" /><ellipse
   style="fill:#d15075;stroke-width:0.0473859"
   cx="21.452309"
   cy="16.621819"
   id="circle5289"
   rx="0.90097207"
   ry="0.94640601" /><path
   style="opacity:0.035;fill:#040000;stroke-width:0.0473859"
   d="m 23.310104,0 h -0.157336 l -5.579813,5.8611901 h 5.737149 c 0.199918,0 0.36197,-0.1702239 0.36197,-0.3801748 V 0.38022337 C 23.672074,0.17027247 23.510022,0 23.310104,0 Z"
   id="path5295" />
</svg>
