<?xml version="1.0" encoding="UTF-8" standalone="no"?>
<!-- Uploaded to: SVG Repo, www.svgrepo.com, Transformed by: SVG Repo Mixer Tools -->

<svg
   height="23.142731"
   width="23.725668"
   version="1.1"
   id="Layer_1"
   viewBox="0 0 15.065799 14.695634"
   xml:space="preserve"
   fill="#f4861f"
   stroke="#f4861f"
   sodipodi:docname="servers.svg"
   inkscape:version="1.2.1 (9c6d41e410, 2022-07-14)"
   xmlns:inkscape="http://www.inkscape.org/namespaces/inkscape"
   xmlns:sodipodi="http://sodipodi.sourceforge.net/DTD/sodipodi-0.dtd"
   xmlns="http://www.w3.org/2000/svg"
   xmlns:svg="http://www.w3.org/2000/svg"><defs
   id="defs100">                                     </defs><sodipodi:namedview
   id="namedview98"
   pagecolor="#ffffff"
   bordercolor="#666666"
   borderopacity="1.0"
   inkscape:showpageshadow="2"
   inkscape:pageopacity="0.0"
   inkscape:pagecheckerboard="0"
   inkscape:deskcolor="#d1d1d1"
   showgrid="false"
   inkscape:zoom="13.14"
   inkscape:cx="23.211568"
   inkscape:cy="21.613394"
   inkscape:window-width="1600"
   inkscape:window-height="837"
   inkscape:window-x="-8"
   inkscape:window-y="-8"
   inkscape:window-maximized="1"
   inkscape:current-layer="Layer_1" />

<g
   id="SVGRepo_bgCarrier"
   stroke-width="0"
   transform="translate(0.49628107,-49.695619)" />

<g
   id="SVGRepo_tracerCarrier"
   stroke-linecap="round"
   stroke-linejoin="round"
   transform="translate(0.49628107,-49.695619)" />

<path
   style="fill:#f4efef;stroke-width:0.0326274"
   d="m 7.4381835,3.3843836 h 0.1775929 c 0.201272,0 0.3551858,0.1582496 0.3670254,0.3740445 L 8.0064808,4.1037 h 6.0144802 c 0.5091,0 0.840607,-0.6761574 0.840607,-1.2228379 v -1.711973 c 0,-0.58983944 -0.355186,-0.93511132 -0.840607,-0.93511132 H 1.1395546 c -0.46174162,0 -0.94716227,0.31649922 -0.94716227,0.93511132 v 1.711973 c 0,0.5898395 0.46174159,1.2228379 0.94716227,1.2228379 H 7.047479 L 7.0711581,3.7584281 C 7.0829976,3.5426332 7.248751,3.3843836 7.4381835,3.3843836 Z"
   id="path4" /><path
   style="fill:#cdeef9;stroke-width:0.0326274"
   d="M 9.9008053,1.514161 H 9.6640147 3.5074602 c -0.2249511,0 -0.4735811,0.071932 -0.4735811,0.3452718 v 0.3021129 c 0,0.2733403 0.2367905,0.6473848 0.4735811,0.6473848 h 6.4051846 c 0.2249512,0 0.3551862,-0.3596582 0.3551862,-0.6473848 V 1.8594328 C 10.255991,1.5860926 10.137596,1.514161 9.9008053,1.514161 Z"
   id="path6" /><path
   style="fill:#e8e3e3;stroke-width:0.0326274"
   d="M 1.8854448,1.4134567 C 1.8262472,1.3990704 1.7788891,1.384684 1.7196914,1.384684 c -0.2841486,0 -0.5209392,0.2877266 -0.5209392,0.6329985 0,0.3452718 0.2367906,0.6329984 0.5209392,0.6329984 0.2841487,0 0.5209393,-0.2877266 0.5209393,-0.6329984 0,-0.057545 -0.01184,-0.1150907 -0.023679,-0.1870223 C 2.1459145,1.4997746 1.8854448,1.4134567 1.8854448,1.4134567 Z"
   id="path8" /><g
   id="g16"
   transform="matrix(0.02959882,0,0,0.03596582,0.01479941,-1.7875013)"> <path
   style="fill:#18aa88"
   d="m 462,115.8 c 5.6,0 10,-4.4 10,-10 0,-8 -10,-10 -10.4,-10 -5.2,0 -9.6,4.4 -9.6,10 0,5.6 4.4,10 10,10 z"
   id="path10" /> <path
   style="fill:#18aa88"
   d="m 422,115.8 c 3.2,0 6.8,-1.6 8.8,-4 0.8,-1.2 2,-3.2 1.6,-5.6 -2,-9.2 -6.4,-10.8 -8.8,-10.8 -0.4,0 -0.8,0 -0.8,0 h -0.4 c -5.6,0 -10,4.4 -10,10 -0.4,6 4,10.4 9.6,10.4 z"
   id="path12" /> <path
   style="fill:#18aa88"
   d="m 382,115.8 c 3.2,0 6.4,-1.6 8.4,-3.6 1.2,-1.2 2.4,-3.2 2,-6 -1.6,-10 -8.8,-10.4 -10,-10.4 -5.6,0 -10.4,4.4 -10.4,10 0,5.6 4.4,10 10,10 z"
   id="path14" /> </g><g
   id="g22"
   transform="matrix(0.02959882,0,0,0.03596582,0.01479941,-1.7875013)"> <path
   style="fill:#f4efef"
   d="M 167.2,275.8 H 118 c -10,0 -20,-12 -20,-22 v -8.4 c 0,-10 10.4,-13.6 20,-13.6 h 49.2 c 2,-12 6,-19.6 11.2,-28 0.8,-1.2 1.6,-2 2.4,-3.2 0,0 -2,-0.8 -2.4,-0.8 h -140 c -15.6,0 -32,8.8 -32,26 v 47.6 c 0,16.8 15.6,34.4 32,34.4 h 137.2 l 2.8,-4.4 2,-2.8 c -0.8,-0.8 -1.2,-1.2 -2,-2 -5.2,-7.2 -8.8,-14.8 -11.2,-22.8 z"
   id="path18" /> <path
   style="fill:#f4efef"
   d="M 473.6,199.8 H 328.8 l -1.2,0.4 c 6.8,10 11.6,20.8 14,33.6 l 10,0.8 c 6,0.4 10.4,5.6 10.4,12 v 6 c 0,6.8 -4.4,12 -10.4,12.4 l -9.6,0.8 c -2,11.2 -6.4,22 -12.4,31.6 -0.4,0.8 -1.2,1.6 -1.6,2.4 l 2,3.2 2.8,4.4 h 140.8 c 17.2,0 28.4,-18.8 28.4,-34.4 v -47.6 c 0,-16 -12,-25.6 -28.4,-25.6 z"
   id="path20" /> </g><path
   style="fill:#cdeef9;stroke-width:0.0326274"
   d="M 4.5848572,7.743441 C 4.4072643,7.7290547 4.2178319,7.5420324 4.2178319,7.2974648 V 7.0816699 c 0,-0.2157949 0.1775929,-0.3884308 0.3670253,-0.4172035 l 0.094716,0.028773 h -1.172113 c -0.2249511,0 -0.4735811,0.071932 -0.4735811,0.3452718 v 0.3021129 c 0,0.2733402 0.2367905,0.6473848 0.4735811,0.6473848 h 1.4325829 c -0.01184,-0.1438633 -0.01184,-0.129477 -0.023679,-0.172636 z"
   id="path24" /><path
   style="fill:#e8e3e3;stroke-width:0.0326274"
   d="m 1.8972844,6.5781484 c -0.059198,-0.028773 -0.1183953,-0.028773 -0.177593,-0.028773 -0.2841486,0 -0.5209392,0.2877265 -0.5209392,0.6329984 0,0.3452719 0.2367906,0.6329984 0.5209392,0.6329984 0.2841487,0 0.5209393,-0.2877265 0.5209393,-0.6329984 0,-0.057545 -0.01184,-0.1150906 -0.023679,-0.1870223 C 2.1340749,6.6213074 1.9091239,6.5925348 1.8972844,6.5781484 Z"
   id="path26" /><g
   id="g34"
   transform="matrix(0.02959882,0,0,0.03596582,0.01479941,-1.7875013)"> <path
   style="fill:#18aa88"
   d="m 462,259.8 c 3.2,0 6,-1.6 8,-3.6 1.2,-1.2 2.4,-3.2 2,-6 -1.2,-9.2 -7.2,-10.4 -9.6,-10.4 H 462 c -5.6,0 -10,4.4 -10,10 0,5.6 4.4,10 10,10 z"
   id="path28" /> <path
   style="fill:#18aa88"
   d="m 422,259.8 c 3.2,0 6.8,-1.6 8.8,-4 0.8,-1.2 2,-3.2 1.6,-5.6 -2.4,-10 -8.8,-10.4 -10,-10.4 -5.6,0 -10.4,4.4 -10.4,10 0,5.6 4.4,10 10,10 z"
   id="path30" /> <path
   style="fill:#18aa88"
   d="m 382,259.8 c 2.8,0 5.6,-1.2 7.6,-3.2 1.6,-2 2.8,-4.4 2.4,-6.8 -0.8,-9.2 -6.8,-10.4 -9.6,-10.4 H 382 c -5.6,0 -10.4,4.4 -10.4,10 0.4,6 4.8,10.4 10.4,10.4 z"
   id="path32" /> </g><path
   style="fill:#f4efef;stroke-width:0.0326274"
   d="M 14.032801,10.577548 H 8.0064808 l -0.01184,0.27334 c -0.011839,0.215795 -0.1657534,0.445976 -0.3670254,0.445976 H 7.450023 c -0.201272,0 -0.3551858,-0.244568 -0.3670254,-0.445976 l -0.011839,-0.27334 h -5.931604 c -0.46174162,0 -0.94716227,0.302113 -0.94716227,0.920725 v 1.711973 c 0,0.604225 0.46174159,1.237224 0.94716227,1.237224 H 14.020961 c 0.5091,0 0.840607,-0.676158 0.840607,-1.237224 v -1.711973 c 0.01184,-0.58984 -0.331507,-0.920725 -0.828767,-0.920725 z"
   id="path36" /><path
   style="fill:#cdeef9;stroke-width:0.0326274"
   d="m 3.0338791,12.217589 v 0.302113 c 0,0.27334 0.24863,0.661771 0.4735811,0.661771 h 6.4051846 c 0.2249512,0 0.3551862,-0.374045 0.3551862,-0.661771 v -0.302113 c 0,-0.27334 -0.118396,-0.345272 -0.3551862,-0.345272 H 9.6758543 3.5192997 c -0.2486301,0 -0.4854207,0.07193 -0.4854206,0.345272 z"
   id="path38" /><path
   style="fill:#e8e3e3;stroke-width:0.0326274"
   d="M 2.2287911,12.160044 C 2.2051121,11.771613 1.9209634,11.757227 1.9091239,11.757227 h -0.01184 c -0.047358,-0.01439 -0.1065558,-0.02877 -0.1657534,-0.02877 -0.2841487,0 -0.5209393,0.287726 -0.5209393,0.632998 0,0.345272 0.2367906,0.632999 0.5209393,0.632999 0.2841486,0 0.5209392,-0.287727 0.5209392,-0.632999 0,-0.02877 -0.011839,-0.07193 -0.011839,-0.100704 -0.01184,-0.04316 -0.01184,-0.07193 -0.01184,-0.100704 z"
   id="path40" /><g
   id="g46"
   transform="matrix(0.02959882,0,0,0.03596582,0.01479941,-1.7875013)"> <path
   style="fill:#18aa88"
   d="m 462,383.4 c -5.6,0 -10,4.4 -10,10 0,5.6 4.4,10 10,10 2.8,0 5.6,-1.2 7.6,-3.2 1.6,-2 2.8,-4.4 2.4,-6.8 -0.4,-10 -9.6,-10 -10,-10 z"
   id="path42" /> <path
   style="fill:#18aa88"
   d="m 422,383.4 c -5.6,0 -10,4.4 -10,10 0,5.6 4.4,10 10,10 2.8,0 5.6,-1.2 7.2,-3.2 2,-2 2.8,-4.4 2.8,-6.8 0,-9.6 -9.2,-10 -10,-10 z"
   id="path44" /> </g><path
   style="fill:#000000;stroke-width:0.032385;stroke-dasharray:none;fill-opacity:1"
   d="M 10.409905,6.779557 10.066559,6.736398 c -0.02368,0 -0.04736,-0.028773 -0.04736,-0.057545 C 9.9600029,6.2760355 9.8534472,5.901991 9.6758543,5.5711055 9.6521752,5.5135602 9.6166566,5.4560148 9.581138,5.4128559 c -0.011839,-0.028773 -0.011839,-0.057545 0,-0.086318 L 9.6048171,5.2833789 9.6758543,5.1826746 9.8179286,4.981266 C 9.9008053,4.8661754 9.8889658,4.6791531 9.8060891,4.5640625 L 9.6758543,4.4058129 C 9.5929776,4.3051086 9.4272242,4.2907223 9.3325079,4.3914266 L 9.0483593,4.6791531 c -0.023679,0.014386 -0.047358,0.028773 -0.071037,0 C 8.6694944,4.4201992 8.3261481,4.2475633 7.9591227,4.1612453 c -0.011839,0 -0.011839,0 -0.023679,0 -0.023679,0 -0.047358,-0.028773 -0.047358,-0.057545 L 7.8525669,3.7296555 C 7.8407274,3.5570196 7.7104926,3.5282469 7.6039369,3.5282469 h -0.177593 c -0.1183952,0 -0.2367905,0.043159 -0.24863,0.2014086 L 7.1421953,4.146859 c 0,0.014386 -0.01184,0.028773 -0.023679,0.043159 -0.011839,0 -0.011839,0.014386 -0.023679,0.014386 -0.3907045,0.071932 -0.7340508,0.2445676 -1.0418785,0.5035215 -0.023679,0.014386 -0.047358,0.014386 -0.071037,0 L 5.6977729,4.4058129 C 5.6030566,4.3051086 5.4373032,4.3194949 5.3544265,4.4201992 L 5.2241917,4.5784488 c -0.094716,0.1150907 -0.094716,0.2877266 -0.01184,0.4172036 l 0.2367906,0.3452718 c 0.01184,0.028773 0.023679,0.057545 0,0.086318 -0.071037,0.1294769 -0.1420739,0.2589539 -0.189432,0.3884308 -0.094716,0.215795 -0.1657534,0.4459762 -0.2131115,0.6905438 -0.011839,0.043159 -0.011839,0.086318 -0.023679,0.1294769 0,0.014386 0,0.014386 0,0.028773 0,0.014386 0,0.014386 0,0.028773 0,0.028773 -0.023679,0.057545 -0.059198,0.057545 L 4.5730177,6.7939434 C 4.4427829,6.8083297 4.3125481,6.952193 4.3125481,7.0960562 v 0.215795 c 0,0.1582496 0.1420743,0.2877265 0.2604696,0.3021128 l 0.3670254,0.028773 c 0.023679,0 0.047358,0.028773 0.059198,0.057545 0.01184,0.043159 0.01184,0.1007043 0.023679,0.1438633 0,0.028773 0.011839,0.043159 0.011839,0.071932 0.011839,0.043159 0.011839,0.086318 0.023679,0.1150907 0.047358,0.2014086 0.1183953,0.3884308 0.201272,0.5754531 0.047358,0.1150906 0.1065558,0.2445676 0.1775929,0.3596582 0.01184,0.028773 0.01184,0.057545 0,0.086318 l -0.1302348,0.1870223 -0.047358,0.071932 -0.023679,0.043159 -0.023679,0.043159 c -0.082877,0.1150906 -0.071037,0.3021129 0.01184,0.4172035 L 5.354427,9.9733227 c 0.082877,0.1007043 0.2486301,0.1150903 0.3433464,0.014386 L 5.970082,9.7143679 c 0.01184,-0.014386 0.023679,-0.014386 0.035519,-0.014386 0.011839,0 0.023679,0 0.035519,0.014386 0.3078277,0.2733403 0.6748531,0.4603621 1.053718,0.5322941 0.023679,0 0.047358,0.02877 0.047358,0.07193 l 0.011839,0.215795 0.011839,0.287726 c 0.01184,0.143863 0.1183953,0.359658 0.2486301,0.359658 H 7.592097 c 0.1302348,0 0.2367906,-0.201408 0.2486301,-0.359658 l 0.01184,-0.27334 0.01184,-0.201409 c 0,-0.02877 0.023679,-0.05754 0.047358,-0.07193 0.3670254,-0.07193 0.7340507,-0.258954 1.053718,-0.5466807 0.023679,-0.014386 0.047358,-0.014386 0.071037,0 l 0.2723092,0.2733397 c 0.094716,0.100705 0.2486301,0.08632 0.3433463,-0.014386 L 9.78241,9.8294586 C 9.8771262,9.7143679 9.8771262,9.5273457 9.7942495,9.412255 L 9.7705705,9.3690961 9.7468914,9.3403234 9.6995333,9.2683918 9.5692985,9.0813695 c -0.01184,-0.028773 -0.023679,-0.057545 0,-0.086318 0.059198,-0.1007043 0.1183953,-0.2157949 0.1657534,-0.3164992 0.1302348,-0.3021129 0.224951,-0.6186121 0.2723091,-0.9494976 0,-0.028773 0.02368,-0.057545 0.04736,-0.057545 l 0.331507,-0.028773 C 10.516463,7.6283507 10.5875,7.4844871 10.5875,7.3406238 V 7.1248289 C 10.611177,6.9378066 10.54014,6.779557 10.409905,6.779557 Z"
   id="path48" /><path
   style="fill:#18aa88;stroke-width:0.0326274"
   d="m 11.321549,12.001794 c -0.165754,0 -0.295989,0.15825 -0.295989,0.359658 0,0.201409 0.130235,0.359658 0.295989,0.359658 0.165753,0 0.295988,-0.158249 0.295988,-0.374044 0.01184,-0.316499 -0.284149,-0.345272 -0.295988,-0.345272 z"
   id="path50" /><path
   style="fill:#f4efef;stroke-width:0.0326274"
   d="M 9.0483593,7.613964 C 9.1430755,7.1248289 9.0720383,6.6213074 8.8470873,6.2041039 8.6576549,5.7293551 8.2314318,5.5279465 8.2314318,5.5279465 8.1959133,5.4991738 8.1603947,5.4847875 8.1248761,5.4704012 7.9354436,5.3840832 7.7460112,5.3265379 7.5447392,5.3265379 7.248751,5.3265379 6.9646023,5.4272422 6.7159723,5.6142645 6.3726259,5.8876047 6.1239959,6.3048082 6.0411192,6.7939434 5.9464029,7.2830785 6.0174401,7.7866 6.2423911,8.2038035 c 0.2841487,0.5466805 0.7695694,0.877566 1.3023481,0.877566 0.2959882,0 0.5801369,-0.1007043 0.828767,-0.2877266 C 8.7168525,8.5203027 8.9536431,8.1030992 9.0483593,7.613964 Z"
   id="path52" /><path
   d="M 14.032801,4.3194949 H 8.2432714 c -0.071037,0 -0.1183953,-0.057545 -0.1183953,-0.1438632 0,-0.086318 0.047358,-0.1438633 0.1183953,-0.1438633 h 5.7895296 c 0.449902,0 0.781408,-0.6042258 0.781408,-1.1509063 v -1.711973 c 0,-0.53229413 -0.307827,-0.86317968 -0.781408,-0.86317968 H 1.1395546 c -0.43806257,0 -0.88796463,0.30211289 -0.88796463,0.86317968 v 1.711973 c 0,0.5754532 0.44990206,1.1509063 0.88796463,1.1509063 h 5.8013687 c 0.071037,0 0.1183953,0.057545 0.1183953,0.1438633 0,0.086318 -0.047358,0.1438632 -0.1183953,0.1438632 H 1.1395546 c -0.56829737,0 -1.12475519,-0.7193164 -1.12475519,-1.4386328 v -1.711973 c 0,-0.74808905 0.58013687,-1.15090624 1.12475519,-1.15090624 H 14.020961 c 0.615655,0 1.018199,0.4603625 1.018199,1.15090624 v 1.711973 C 15.051,3.5570196 14.636616,4.3194949 14.032801,4.3194949 Z"
   id="path54"
   style="stroke-width:0.0326274;fill:#ff6600" /><path
   d="M 9.9008053,3.0247254 H 3.5074602 c -0.3078278,0 -0.5327788,-0.2877265 -0.5327788,-0.7193164 V 1.8594328 c 0,-0.3740445 0.1775929,-0.5610667 0.5327788,-0.5610667 h 5.2093923 c 0.071037,0 0.1183953,0.057545 0.1183953,0.1438632 0,0.086318 -0.047358,0.1438633 -0.1183953,0.1438633 H 3.5074602 c -0.2486301,0 -0.2959882,0.1007043 -0.2959882,0.2733402 V 2.305409 c 0,0.2014086 0.071037,0.4315899 0.2959882,0.4315899 h 6.4051846 c 0.2131112,0 0.2959882,-0.2301813 0.2959882,-0.4315899 V 1.8594328 c 0,-0.1870222 -0.04736,-0.2733402 -0.2959882,-0.2733402 H 9.6758543 c -0.071037,0 -0.1183953,-0.057545 -0.1183953,-0.1438633 0,-0.086318 0.047358,-0.1438632 0.1183953,-0.1438632 h 0.2367905 c 0.3551862,0 0.5327792,0.1870222 0.5327792,0.5610667 V 2.305409 c -0.01184,0.4315899 -0.224951,0.7193164 -0.5446187,0.7193164 z"
   id="path56"
   style="stroke-width:0.0326274;fill:#ff6600" /><path
   d="m 1.7196914,2.8664758 c -0.3907044,0 -0.6985321,-0.3884308 -0.6985321,-0.8487933 0,-0.4747489 0.3196672,-0.8487934 0.6985321,-0.8487934 0.071037,0 0.1420744,0.014386 0.2131115,0.043159 0.059198,0.028773 0.094716,0.1007043 0.071037,0.1870223 C 1.9801611,1.471002 1.9209634,1.514161 1.8499262,1.4853883 1.8025681,1.471002 1.75521,1.4566157 1.7078519,1.4566157 c -0.2604696,0 -0.4617416,0.2589539 -0.4617416,0.5610668 0,0.3164992 0.2131115,0.5610667 0.4617416,0.5610667 0.2604696,0 0.4617416,-0.2589539 0.4617416,-0.5610667 0,-0.057545 -0.011839,-0.1150907 -0.023679,-0.172636 -0.023679,-0.071932 0.01184,-0.1582496 0.082877,-0.1726359 0.059198,-0.028773 0.1302349,0.014386 0.1420744,0.1007043 0.023679,0.086318 0.035519,0.1582496 0.035519,0.2445676 0.023679,0.4747488 -0.2959882,0.8487933 -0.6866935,0.8487933 z"
   id="path58"
   style="stroke-width:0.0326274;fill:#ff6600" /><path
   d="m 13.689454,2.5931356 c -0.260469,0 -0.473581,-0.2589539 -0.473581,-0.5754531 0,-0.3164993 0.213112,-0.5754532 0.473581,-0.5754532 0.07104,0 0.118396,0.057545 0.118396,0.1438633 0,0.086318 -0.04736,0.1438633 -0.118396,0.1438633 -0.130235,0 -0.23679,0.1294769 -0.23679,0.2877266 0,0.1582496 0.106555,0.2877265 0.23679,0.2877265 0.130235,0 0.236791,-0.1294769 0.236791,-0.2877265 0,-0.086318 0.04736,-0.1438633 0.118395,-0.1438633 0.07104,0 0.118395,0.057545 0.118395,0.1438633 0,0.3164992 -0.213111,0.5754531 -0.473581,0.5754531 z"
   id="path60"
   style="stroke-width:0.0326274;fill:#ff6600" /><path
   d="m 12.505501,2.5931356 c -0.260469,0 -0.473581,-0.2589539 -0.473581,-0.5754531 0,-0.3164993 0.213112,-0.5754532 0.473581,-0.5754532 0.07104,0 0.118396,0.057545 0.118396,0.1438633 0,0.086318 -0.04736,0.1438633 -0.118396,0.1438633 -0.130234,0 -0.23679,0.1294769 -0.23679,0.2877266 0,0.1582496 0.106556,0.2877265 0.23679,0.2877265 0.130235,0 0.236791,-0.1294769 0.236791,-0.2877265 0,-0.086318 0.04736,-0.1438633 0.118395,-0.1438633 0.07104,0 0.118396,0.057545 0.118396,0.1438633 0,0.3164992 -0.213112,0.5754531 -0.473582,0.5754531 z"
   id="path62"
   style="stroke-width:0.0326274;fill:#ff6600" /><path
   d="m 11.321549,2.5931356 c -0.26047,0 -0.473581,-0.2589539 -0.473581,-0.5754531 0,-0.3164993 0.213111,-0.5754532 0.473581,-0.5754532 0.07104,0 0.118395,0.057545 0.118395,0.1438633 0,0.086318 -0.04736,0.1438633 -0.118395,0.1438633 -0.130235,0 -0.236791,0.1294769 -0.236791,0.2877266 0,0.1582496 0.106556,0.2877265 0.236791,0.2877265 0.130234,0 0.23679,-0.1294769 0.23679,-0.2877265 0,-0.086318 0.04736,-0.1438633 0.118395,-0.1438633 0.07104,0 0.118396,0.057545 0.118396,0.1438633 0,0.3164992 -0.213112,0.5754531 -0.473581,0.5754531 z"
   id="path64"
   style="stroke-width:0.0326274;fill:#ff6600" /><path
   d="M 5.1649941,9.498573 H 1.1395546 c -0.56829737,0 -1.12475519,-0.7193164 -1.12475519,-1.4530191 v -1.711973 c 0,-0.7480891 0.58013687,-1.1509063 1.12475519,-1.1509063 h 4.0254395 c 0.071037,0 0.1183953,0.057545 0.1183953,0.1438633 0,0.086318 -0.047358,0.1438633 -0.1183953,0.1438633 H 1.1395546 c -0.43806257,0 -0.88796463,0.3021129 -0.88796463,0.8631797 v 1.711973 c 0,0.5754531 0.44990206,1.1652926 0.88796463,1.1652926 h 4.0254395 c 0.071037,0 0.1183953,0.057545 0.1183953,0.1438632 0,0.086318 -0.047358,0.1438633 -0.1183953,0.1438633 z"
   id="path66"
   style="stroke-width:0.0326274;fill:#ff6600" /><path
   d="M 14.032801,9.498573 H 9.9008053 c -0.071037,0 -0.1183953,-0.057545 -0.1183953,-0.1438633 0,-0.086318 0.047358,-0.1438632 0.1183953,-0.1438632 h 4.1319957 c 0.449902,0 0.781408,-0.6186121 0.781408,-1.1652926 v -1.711973 c 0,-0.5179079 -0.307827,-0.8631797 -0.781408,-0.8631797 H 9.9008053 c -0.071037,0 -0.1183953,-0.057545 -0.1183953,-0.1438633 0,-0.086318 0.047358,-0.1438633 0.1183953,-0.1438633 h 4.1319957 c 0.615655,0 1.018199,0.4603625 1.018199,1.1509063 v 1.711973 c 0,0.6905437 -0.414384,1.4530191 -1.018199,1.4530191 z"
   id="path68"
   style="stroke-width:0.032385;stroke-dasharray:none;fill:#ff6600" /><path
   d="M 4.9282035,8.2038035 H 3.5074602 c -0.3078278,0 -0.5327788,-0.3021129 -0.5327788,-0.7193164 V 7.0385109 c 0,-0.3740445 0.1775929,-0.5610668 0.5327788,-0.5610668 h 1.4207433 c 0.071037,0 0.1183953,0.057545 0.1183953,0.1438633 0,0.086318 -0.047358,0.1438633 -0.1183953,0.1438633 H 3.5074602 c -0.2486301,0 -0.2959882,0.086318 -0.2959882,0.2733402 v 0.4459762 c 0,0.2014086 0.071037,0.4315898 0.2959882,0.4315898 h 1.4207433 c 0.071037,0 0.1183953,0.057545 0.1183953,0.1438633 0,0.086318 -0.047358,0.1438633 -0.1183953,0.1438633 z"
   id="path70"
   style="stroke-width:0.0326274;fill:#ff6600" /><path
   d="m 1.7196914,8.0455539 c -0.3907044,0 -0.6985321,-0.3884309 -0.6985321,-0.8487934 0,-0.4603625 0.3196672,-0.8487933 0.6985321,-0.8487933 0.071037,0 0.1420744,0.014386 0.2131115,0.043159 0.059198,0.028773 0.094716,0.1007043 0.071037,0.1870222 -0.023679,0.071932 -0.082877,0.1150907 -0.1539139,0.086318 -0.047358,-0.014386 -0.094716,-0.028773 -0.1420743,-0.028773 -0.2604696,0 -0.4617416,0.2589539 -0.4617416,0.5610668 0,0.3164993 0.2131115,0.5610668 0.4617416,0.5610668 0.2604696,0 0.4617416,-0.2589539 0.4617416,-0.5610668 0,-0.057545 -0.011839,-0.1150906 -0.023679,-0.1726359 -0.023679,-0.071932 0.01184,-0.1582496 0.082877,-0.1726359 0.059198,-0.028773 0.1302349,0.014386 0.1420744,0.1007043 0.023679,0.086318 0.035519,0.1582496 0.035519,0.2445675 0.023679,0.4603625 -0.2959882,0.8487934 -0.6866933,0.8487937 z"
   id="path72"
   style="stroke-width:0.0326274;fill:#ff6600" /><path
   d="m 13.689454,7.7722137 c -0.260469,0 -0.473581,-0.2589539 -0.473581,-0.5754532 0,-0.3164992 0.213112,-0.5754531 0.473581,-0.5754531 0.07104,0 0.118396,0.057545 0.118396,0.1438633 0,0.086318 -0.04736,0.1438633 -0.118396,0.1438633 -0.130235,0 -0.23679,0.1294769 -0.23679,0.2877265 0,0.1582496 0.106555,0.2877266 0.23679,0.2877266 0.130235,0 0.236791,-0.129477 0.236791,-0.2877266 0,-0.086318 0.04736,-0.1438632 0.118395,-0.1438632 0.07104,0 0.118395,0.057545 0.118395,0.1438632 0,0.3164993 -0.213111,0.5754532 -0.473581,0.5754532 z"
   id="path74"
   style="stroke-width:0.0326274;fill:#ff6600" /><path
   d="m 12.505501,7.7722137 c -0.260469,0 -0.473581,-0.2589539 -0.473581,-0.5754532 0,-0.3164992 0.213112,-0.5754531 0.473581,-0.5754531 0.07104,0 0.118396,0.057545 0.118396,0.1438633 0,0.086318 -0.04736,0.1438633 -0.118396,0.1438633 -0.130234,0 -0.23679,0.1294769 -0.23679,0.2877265 0,0.1582496 0.106556,0.2877266 0.23679,0.2877266 0.130235,0 0.236791,-0.129477 0.236791,-0.2877266 0,-0.086318 0.04736,-0.1438632 0.118395,-0.1438632 0.07104,0 0.118396,0.057545 0.118396,0.1438632 0,0.3164993 -0.213112,0.5754532 -0.473582,0.5754532 z"
   id="path76"
   style="stroke-width:0.0326274;fill:#ff6600" /><path
   d="m 11.321549,7.7722137 c -0.26047,0 -0.473581,-0.2589539 -0.473581,-0.5754532 0,-0.3164992 0.213111,-0.5754531 0.473581,-0.5754531 0.07104,0 0.118395,0.057545 0.118395,0.1438633 0,0.086318 -0.04736,0.1438633 -0.118395,0.1438633 -0.130235,0 -0.236791,0.1294769 -0.236791,0.2877265 0,0.1582496 0.106556,0.2877266 0.236791,0.2877266 0.130234,0 0.23679,-0.129477 0.23679,-0.2877266 0,-0.086318 0.04736,-0.1438632 0.118395,-0.1438632 0.07104,0 0.118396,0.057545 0.118396,0.1438632 0,0.3164993 -0.213112,0.5754532 -0.473581,0.5754532 z"
   id="path78"
   style="stroke-width:0.0326274;fill:#ff6600" /><path
   d="M 14.032801,14.677651 H 1.1395546 c -0.56829737,0 -1.12475519,-0.719316 -1.12475519,-1.453019 v -1.711973 c 0,-0.748089 0.56829734,-1.13652 1.12475519,-1.13652 h 5.919764 c 0.071037,0 0.1183953,0.05754 0.1183953,0.143863 0,0.08632 -0.047358,0.143864 -0.1183953,0.143864 h -5.919764 c -0.43806257,0 -0.88796463,0.287726 -0.88796463,0.848793 v 1.711973 c 0,0.575453 0.44990206,1.165293 0.88796463,1.165293 H 14.020961 c 0.449902,0 0.781409,-0.618613 0.781409,-1.165293 v -1.711973 c 0,-0.532294 -0.295988,-0.848793 -0.781409,-0.848793 H 8.0064808 c -0.071037,0 -0.1183953,-0.05755 -0.1183953,-0.143864 0,-0.08632 0.047358,-0.143863 0.1183953,-0.143863 h 6.0263202 c 0.615655,0 1.018199,0.460363 1.018199,1.13652 v 1.711973 c 0,0.690544 -0.414384,1.453019 -1.018199,1.453019 z"
   id="path80"
   style="stroke-width:0.0326274;fill:#ff6600" /><path
   d="M 9.9008053,13.382882 H 3.5074602 c -0.3078278,0 -0.5327788,-0.302113 -0.5327788,-0.733703 v -0.445976 c 0,-0.546681 0.402544,-0.546681 0.5327788,-0.546681 h 5.2093923 c 0.071037,0 0.1183953,0.05755 0.1183953,0.143863 0,0.08632 -0.047358,0.143864 -0.1183953,0.143864 H 3.5074602 c -0.2486301,0 -0.2959882,0.08632 -0.2959882,0.258954 v 0.445976 c 0,0.215795 0.094716,0.445976 0.2959882,0.445976 h 6.4051846 c 0.2012722,0 0.2959882,-0.215795 0.2959882,-0.445976 v -0.445976 c 0,-0.187023 -0.04736,-0.258954 -0.2959882,-0.258954 H 9.6758543 c -0.071037,0 -0.1183953,-0.05755 -0.1183953,-0.143864 0,-0.08632 0.047358,-0.143863 0.1183953,-0.143863 h 0.2367905 c 0.1302352,0 0.5327792,0 0.5327792,0.546681 v 0.445976 c -0.01184,0.43159 -0.236791,0.733703 -0.5446187,0.733703 z"
   id="path82"
   style="stroke-width:0.0326274;fill:#ff6600" /><path
   d="m 1.7196914,13.210246 c -0.3907044,0 -0.6985321,-0.388431 -0.6985321,-0.848794 0,-0.460362 0.3196672,-0.848793 0.6985321,-0.848793 0.071037,0 0.1420744,0.01439 0.2131115,0.04316 0.059198,0.02877 0.094716,0.100704 0.071037,0.187022 -0.023679,0.07193 -0.082877,0.115091 -0.1539139,0.08632 -0.047358,-0.01439 -0.094716,-0.02877 -0.1420743,-0.02877 -0.2604696,0 -0.4617416,0.258954 -0.4617416,0.561067 0,0.302113 0.2131115,0.561067 0.4617416,0.561067 0.2604696,0 0.4617416,-0.258954 0.4617416,-0.561067 0,-0.05754 -0.011839,-0.11509 -0.023679,-0.172636 -0.023679,-0.07193 0.01184,-0.158249 0.082877,-0.187022 0.059198,-0.02877 0.1302349,0.01439 0.1420744,0.100704 0.023679,0.08632 0.035519,0.15825 0.035519,0.244568 0.023679,0.489135 -0.2959882,0.86318 -0.6866927,0.86318 z"
   id="path84"
   style="stroke-width:0.0326274;fill:#ff6600"
   inkscape:label="path84" /><path
   d="m 13.689454,12.936905 c -0.260469,0 -0.473581,-0.258953 -0.473581,-0.575453 0,-0.316499 0.213112,-0.575453 0.473581,-0.575453 0.07104,0 0.118396,0.05754 0.118396,0.143863 0,0.08632 -0.04736,0.143864 -0.118396,0.143864 -0.130235,0 -0.23679,0.129477 -0.23679,0.287726 0,0.15825 0.106555,0.287727 0.23679,0.287727 0.130235,0 0.236791,-0.129477 0.236791,-0.287727 0,-0.08632 0.04736,-0.143863 0.118395,-0.143863 0.07104,0 0.118395,0.05754 0.118395,0.143863 0,0.3165 -0.213111,0.575453 -0.473581,0.575453 z"
   id="path86"
   style="stroke-width:0.0326274;fill:#ff6600" /><path
   d="m 12.505501,12.936905 c -0.260469,0 -0.473581,-0.258953 -0.473581,-0.575453 0,-0.316499 0.213112,-0.575453 0.473581,-0.575453 0.07104,0 0.118396,0.05754 0.118396,0.143863 0,0.08632 -0.04736,0.143864 -0.118396,0.143864 -0.130234,0 -0.23679,0.129477 -0.23679,0.287726 0,0.15825 0.106556,0.287727 0.23679,0.287727 0.130235,0 0.236791,-0.129477 0.236791,-0.287727 0,-0.08632 0.04736,-0.143863 0.118395,-0.143863 0.07104,0 0.118396,0.05754 0.118396,0.143863 0,0.3165 -0.213112,0.575453 -0.473582,0.575453 z"
   id="path88"
   style="stroke-width:0.0326274;fill:#ff6600" /><path
   d="m 11.321549,12.936905 c -0.26047,0 -0.473581,-0.258953 -0.473581,-0.575453 0,-0.316499 0.213111,-0.575453 0.473581,-0.575453 0.07104,0 0.118395,0.05754 0.118395,0.143863 0,0.08632 -0.04736,0.143864 -0.118395,0.143864 -0.130235,0 -0.236791,0.129477 -0.236791,0.287726 0,0.15825 0.106556,0.287727 0.236791,0.287727 0.130234,0 0.23679,-0.129477 0.23679,-0.287727 0,-0.08632 0.04736,-0.143863 0.118395,-0.143863 0.07104,0 0.118396,0.05754 0.118396,0.143863 0,0.3165 -0.213112,0.575453 -0.473581,0.575453 z"
   id="path90"
   style="stroke-width:0.0326274;fill:#ff6600" /><path
   d="m 7.5328997,9.2971644 c -0.5682974,0 -1.1247552,-0.3452718 -1.456262,-0.9782703 C 5.8280077,7.8441453 5.745131,7.2830785 5.8516867,6.736398 5.9582425,6.1897176 6.2187121,5.7293551 6.6094165,5.4272422 7.0829976,5.067584 7.6631345,4.9956524 8.1840737,5.2546063 c 0.035519,0.014386 0.071037,0.043159 0.1065558,0.057545 0.059198,0.028773 0.082877,0.1150906 0.059198,0.1870222 -0.023679,0.071932 -0.094716,0.1007043 -0.1539138,0.071932 C 8.1603947,5.5567191 8.1367156,5.5423328 8.101197,5.5135602 7.651295,5.2977652 7.1540348,5.3553106 6.7396513,5.6574234 6.4081445,5.9163773 6.171354,6.3191945 6.0884773,6.7939434 6.0056006,7.2686922 6.0766377,7.743441 6.2779097,8.1606445 6.7159723,8.9950515 7.6394554,9.2540054 8.3261481,8.7217113 9.0128407,8.1894172 9.2259522,7.0672836 8.7878897,6.2328766 8.7523711,6.1609449 8.7642106,6.074627 8.8234082,6.031468 8.8826059,5.988309 8.9536431,6.0026953 8.9891616,6.074627 9.4982613,7.0528973 9.2614708,8.3476668 8.4563829,8.9662789 8.1722342,9.1820738 7.8525669,9.2971644 7.5328997,9.2971644 Z"
   id="path92"
   style="fill:#ff6600;stroke-width:0.0326274" /><path
   d="M 7.6276159,11.368796 H 7.450023 c -0.224951,0 -0.4143835,-0.287727 -0.426223,-0.561067 L 7.0001209,10.419298 C 6.6567746,10.33298 6.3371074,10.17473 6.0411192,9.9301629 l -0.201272,0.2014081 c -0.1657534,0.172636 -0.426223,0.15825 -0.5801369,-0.02877 L 5.1294755,9.9445492 C 4.9755616,9.7575269 4.9637221,9.4410277 5.1057964,9.2396191 L 5.2715498,8.9950515 C 5.0702779,8.6353933 4.9400431,8.2325762 4.8690059,7.829759 L 4.5848572,7.8009863 C 4.3835852,7.7866 4.1586342,7.5708051 4.1586342,7.2830785 V 7.0672836 c 0,-0.2877266 0.2131115,-0.5035215 0.426223,-0.5179078 L 4.8808454,6.5206031 C 4.9518826,6.1177859 5.0821174,5.7149688 5.2715498,5.3696969 L 5.0939569,5.110743 C 4.9518826,4.9093344 4.9637221,4.5928352 5.117636,4.4058129 L 5.2478708,4.2475633 C 5.4017847,4.060541 5.6622543,4.0461547 5.8280077,4.2187906 L 6.0411192,4.4489719 C 6.3134283,4.233177 6.6330956,4.0749274 6.9882814,3.9886094 L 7.0119605,3.6864965 C 7.0238,3.4419289 7.2013929,3.2836793 7.4381835,3.2836793 h 0.1775929 c 0.2486301,0 0.4143835,0.1582496 0.426223,0.4028172 l 0.023679,0.2589539 c 0.3433463,0.086318 0.651174,0.2445676 0.9471622,0.4747488 L 9.2259522,4.2044043 C 9.3917056,4.0317684 9.6521752,4.0461547 9.8060891,4.233177 l 0.1302348,0.1582496 c 0.1539141,0.1870222 0.1657531,0.5035215 0.023679,0.70493 L 9.78241,5.3553106 c 0.1894325,0.3452718 0.319667,0.7337027 0.390704,1.1509062 l 0.26047,0.028773 c 0.213112,0.014386 0.367025,0.2445676 0.367025,0.5179079 v 0.2157949 c 0,0.2733402 -0.153913,0.5035215 -0.367025,0.5179078 l -0.236791,0.028773 C 10.125756,8.2325762 9.9955215,8.621007 9.8060891,8.9806652 L 9.9718425,9.2252328 C 10.113917,9.4266414 10.102077,9.7431406 9.9481634,9.9301629 L 9.8179286,10.088412 c -0.1539139,0.187023 -0.4143835,0.201409 -0.5801369,0.02877 L 9.0365197,9.9157765 C 8.728692,10.17473 8.4090248,10.33298 8.077518,10.419298 L 8.053839,10.76457 C 8.03016,11.081069 7.852567,11.368796 7.6276159,11.368796 Z M 6.0292796,9.6136636 c 0.023679,0 0.047358,0.014386 0.071037,0.028773 0.3078277,0.2589539 0.6630136,0.4459754 1.0300389,0.5179074 0.059198,0.01439 0.094716,0.07193 0.094716,0.129477 l 0.023679,0.503522 c 0.011839,0.129476 0.1065558,0.287726 0.1894325,0.287726 h 0.1775929 c 0.082877,0 0.1775929,-0.15825 0.1894324,-0.287726 l 0.023679,-0.460363 c 0,-0.07193 0.047358,-0.115091 0.094716,-0.129477 0.3551859,-0.07193 0.6985322,-0.2589535 1.030039,-0.5466801 0.047358,-0.043159 0.1065557,-0.028773 0.1420743,0 l 0.2723091,0.2733403 c 0.071037,0.071931 0.1894325,0.071931 0.2604696,-0.014386 L 9.758731,9.7575269 C 9.829768,9.6712089 9.829768,9.5273457 9.770571,9.4410277 L 9.5456195,9.1101422 C 9.5101009,9.0669832 9.5101009,8.9806652 9.5337799,8.9375062 9.7468914,8.5634617 9.9008053,8.1318719 9.9600029,7.6858957 9.9718425,7.613964 10.007361,7.5708051 10.066559,7.5708051 l 0.331506,-0.028773 C 10.504621,7.5276461 10.54014,7.4125555 10.54014,7.3118512 v -0.215795 c 0,-0.1007043 -0.04736,-0.2157949 -0.142075,-0.2301812 v 0 L 10.054719,6.822716 C 9.995522,6.822716 9.960003,6.765171 9.9481634,6.7076254 9.8889658,6.2472629 9.7468914,5.8300594 9.5337799,5.4704012 9.4982613,5.4128559 9.5101009,5.3409242 9.5456194,5.2977652 L 9.78241,4.9524934 C 9.841608,4.8661754 9.841608,4.7223121 9.77057,4.6359942 L 9.6403357,4.4777445 C 9.5692985,4.3914266 9.4509032,4.3914266 9.3798661,4.4633582 L 9.0957174,4.7510848 C 9.0601988,4.7942438 8.9891616,4.7942438 8.953643,4.7654711 8.6458153,4.5065172 8.302469,4.3338813 7.9354436,4.2619496 7.8880855,4.2475633 7.8407274,4.2044043 7.8407274,4.1324727 L 7.8052088,3.7584281 C 7.7933693,3.6289512 7.6868136,3.6145649 7.6157764,3.6145649 H 7.4381835 c -0.071037,0 -0.177593,0.014386 -0.1894325,0.1438632 L 7.213232,4.1756317 c 0,0.071932 -0.047358,0.1150906 -0.094716,0.1294769 C 6.7278118,4.3770402 6.396305,4.5496762 6.1003168,4.7942438 6.0529587,4.8374027 5.9937611,4.8230164 5.9582425,4.7798574 L 5.6740938,4.4777445 C 5.6030566,4.4058129 5.4846613,4.4058129 5.4136242,4.4921309 L 5.2833894,4.6503805 c -0.071037,0.086318 -0.071037,0.2301812 -0.01184,0.3164992 L 5.50834,5.3121516 C 5.543859,5.3553106 5.543859,5.4416285 5.520179,5.4847875 5.3070675,5.858832 5.1531537,6.2760355 5.093956,6.7220117 5.082116,6.7939437 5.034758,6.8371023 4.9874003,6.8371023 L 4.5966967,6.8802613 C 4.490141,6.8946476 4.3954248,7.0097383 4.3954248,7.1104426 v 0.2157949 c 0,0.1007043 0.1065557,0.2157949 0.2012719,0.2301812 l 0.3670254,0.028773 c 0.059198,0 0.094716,0.057545 0.1065558,0.1150906 0.059198,0.4315899 0.2012719,0.8631797 0.426223,1.2516106 0.035519,0.057545 0.023679,0.1294769 0,0.1726359 L 5.2715498,9.455414 c -0.059198,0.086318 -0.059198,0.2301813 0.01184,0.3164992 l 0.1302348,0.1582497 c 0.071037,0.086318 0.1894324,0.086318 0.2604696,0.014386 L 5.9464029,9.671209 c 0.023679,-0.043159 0.047358,-0.057545 0.082877,-0.057545 z"
   id="path94"
   style="fill:#ff6600;stroke-width:0.0326274" />

</svg>
