<?xml version="1.0" encoding="UTF-8" standalone="no"?>
<!-- Uploaded to: SVG Repo, www.svgrepo.com, Transformed by: SVG Repo Mixer Tools -->

<svg
   width="19.981964"
   height="23.990795"
   viewBox="0 0 7.4932365 8.9965482"
   fill="none"
   version="1.1"
   id="svg15086"
   sodipodi:docname="sign-in.svg"
   inkscape:version="1.2.1 (9c6d41e410, 2022-07-14)"
   xmlns:inkscape="http://www.inkscape.org/namespaces/inkscape"
   xmlns:sodipodi="http://sodipodi.sourceforge.net/DTD/sodipodi-0.dtd"
   xmlns="http://www.w3.org/2000/svg"
   xmlns:svg="http://www.w3.org/2000/svg">
  <defs
     id="defs15090" />
  <sodipodi:namedview
     id="namedview15088"
     pagecolor="#ffffff"
     bordercolor="#666666"
     borderopacity="1.0"
     inkscape:showpageshadow="2"
     inkscape:pageopacity="0.0"
     inkscape:pagecheckerboard="0"
     inkscape:deskcolor="#d1d1d1"
     showgrid="false"
     inkscape:zoom="10.265625"
     inkscape:cx="25.765601"
     inkscape:cy="28.736682"
     inkscape:window-width="1600"
     inkscape:window-height="837"
     inkscape:window-x="-8"
     inkscape:window-y="-8"
     inkscape:window-maximized="1"
     inkscape:current-layer="svg15086" />
  <g
     id="SVGRepo_bgCarrier"
     stroke-width="0"
     transform="translate(-2.2625098,-1.2368858)" />
  <g
     id="SVGRepo_tracerCarrier"
     stroke-linecap="round"
     stroke-linejoin="round"
     transform="translate(-2.2625098,-1.2368858)" />
  <g
     id="SVGRepo_iconCarrier"
     transform="matrix(0.38426739,0,0,0.41844312,-0.86458872,-0.5230435)">
    <path
       d="m 8,16 c 0,2.8284 0,4.2426 0.87868,5.1213 C 9.75736,22 11.1716,22 14,22 h 1 c 2.8284,0 4.2426,0 5.1213,-0.8787 C 21,20.2426 21,18.8284 21,16 V 8 C 21,5.17157 21,3.75736 20.1213,2.87868 19.2426,2 17.8284,2 15,2 H 14 C 11.1716,2 9.75736,2 8.87868,2.87868 8,3.75736 8,5.17157 8,8"
       stroke="#1c274c"
       stroke-width="1.5"
       stroke-linecap="round"
       id="path15079" />
    <path
       opacity="0.5"
       d="m 8,19.5 c -2.35702,0 -3.53553,0 -4.26777,-0.7322 C 3,18.0355 3,16.857 3,14.5 v -5 C 3,7.14298 3,5.96447 3.73223,5.23223 4.46447,4.5 5.64298,4.5 8,4.5"
       stroke="#1c274c"
       stroke-width="1.5"
       id="path15081" />
    <path
       d="m 6,12 h 9 m 0,0 -2.5,2.5 M 15,12 12.5,9.5"
       stroke="#1c274c"
       stroke-width="1.5"
       stroke-linecap="round"
       stroke-linejoin="round"
       id="path15083" />
  </g>
</svg>
