<?xml version="1.0" encoding="UTF-8" standalone="no"?>
<!-- Uploaded to: SVG Repo, www.svgrepo.com, Transformed by: SVG Repo Mixer Tools -->

<svg
   width="20.146654"
   height="24.407917"
   viewBox="0 0 7.5549953 9.1529689"
   fill="none"
   version="1.1"
   id="svg141"
   sodipodi:docname="sign-out.svg"
   inkscape:version="1.2.1 (9c6d41e410, 2022-07-14)"
   xmlns:inkscape="http://www.inkscape.org/namespaces/inkscape"
   xmlns:sodipodi="http://sodipodi.sourceforge.net/DTD/sodipodi-0.dtd"
   xmlns="http://www.w3.org/2000/svg"
   xmlns:svg="http://www.w3.org/2000/svg">
  <defs
     id="defs145" />
  <sodipodi:namedview
     id="namedview143"
     pagecolor="#ffffff"
     bordercolor="#666666"
     borderopacity="1.0"
     inkscape:showpageshadow="2"
     inkscape:pageopacity="0.0"
     inkscape:pagecheckerboard="0"
     inkscape:deskcolor="#d1d1d1"
     showgrid="false"
     inkscape:zoom="10.265625"
     inkscape:cx="25.765601"
     inkscape:cy="28.736682"
     inkscape:window-width="1600"
     inkscape:window-height="837"
     inkscape:window-x="-8"
     inkscape:window-y="-8"
     inkscape:window-maximized="1"
     inkscape:current-layer="svg141" />
  <g
     id="SVGRepo_bgCarrier"
     stroke-width="0"
     transform="translate(-2.2499994,-1.2499995)" />
  <g
     id="SVGRepo_tracerCarrier"
     stroke-linecap="round"
     stroke-linejoin="round"
     transform="translate(-2.2499994,-1.2499995)" />
  <g
     id="SVGRepo_iconCarrier"
     transform="matrix(0.38743166,0,0,0.42571946,-0.87172101,-0.5321491)">
    <path
       d="m 5.46967,12.5303 c -0.29289,-0.2929 -0.29289,-0.7677 0,-1.0606 l 2,-2.00003 c 0.2929,-0.29289 0.76777,-0.29289 1.06066,0 0.2929,0.29289 0.2929,0.76773 0,1.06063 L 7.81066,11.25 H 15 c 0.4142,0 0.75,0.3358 0.75,0.75 0,0.4142 -0.3358,0.75 -0.75,0.75 H 7.81066 l 0.71967,0.7197 c 0.2929,0.2929 0.2929,0.7677 0,1.0606 -0.29289,0.2929 -0.76776,0.2929 -1.06066,0 z"
       fill="#1c274c"
       id="path136" />
    <path
       fill-rule="evenodd"
       clip-rule="evenodd"
       d="m 13.9453,1.25 h 1.1098 c 1.3676,-2e-5 2.4699,-4e-5 3.3369,0.11652 0.9001,0.12102 1.658,0.37991 2.2599,0.98183 0.6019,0.60192 0.8608,1.35979 0.9818,2.2599 0.1166,0.86697 0.1165,1.96929 0.1165,3.33688 v 8.10977 c 0,1.3676 10e-5,2.4699 -0.1165,3.3369 -0.121,0.9001 -0.3799,1.6579 -0.9818,2.2599 C 20.05,22.2536 19.2921,22.5125 18.392,22.6335 17.525,22.75 16.4227,22.75 15.0551,22.75 h -1.1098 c -1.3675,0 -2.4699,0 -3.3368,-0.1165 C 9.70836,22.5125 8.95048,22.2536 8.34857,21.6517 7.94963,21.2527 7.70068,20.7844 7.54305,20.2498 6.59168,20.2486 5.79906,20.2381 5.15689,20.1518 4.39294,20.0491 3.7306,19.8268 3.20191,19.2981 2.67321,18.7694 2.45093,18.1071 2.34822,17.3431 2.24996,16.6123 2.24998,15.6865 2.25,14.5537 V 9.44631 C 2.24998,8.31349 2.24996,7.38774 2.34822,6.65689 2.45093,5.89294 2.67321,5.2306 3.20191,4.7019 3.7306,4.17321 4.39294,3.95093 5.15689,3.84822 5.79906,3.76188 6.59168,3.75142 7.54305,3.75017 7.70068,3.21562 7.94963,2.74729 8.34857,2.34835 8.95048,1.74643 9.70836,1.48754 10.6085,1.36652 11.4754,1.24996 12.5778,1.24998 13.9453,1.25 Z M 7.25197,17.0042 C 7.25555,17.6487 7.2662,18.2293 7.30285,18.7491 6.46836,18.7459 5.848,18.7312 5.35676,18.6652 4.75914,18.5848 4.46611,18.441 4.26257,18.2374 4.05903,18.0339 3.91519,17.7409 3.83484,17.1432 3.7516,16.5241 3.75,15.6997 3.75,14.5 v -5 C 3.75,8.30029 3.7516,7.47595 3.83484,6.85676 3.91519,6.25914 4.05903,5.9661 4.26257,5.76256 4.46611,5.55902 4.75914,5.41519 5.35676,5.33484 5.848,5.2688 6.46836,5.25415 7.30285,5.25091 7.2662,5.77073 7.25555,6.35129 7.25197,6.99583 7.24966,7.41003 7.58357,7.74768 7.99778,7.74999 8.41199,7.7523 8.74964,7.41838 8.75194,7.00418 8.75803,5.91068 8.78643,5.1356 8.89448,4.54735 8.9986,3.98054 9.16577,3.65246 9.40923,3.40901 9.68599,3.13225 10.0746,2.9518 10.8083,2.85315 11.5637,2.75159 12.5648,2.75 14.0002,2.75 h 1 c 1.4354,0 2.4365,0.00159 3.1919,0.10315 0.7338,0.09865 1.1223,0.2791 1.3991,0.55586 0.2768,0.27676 0.4572,0.66534 0.5559,1.39911 C 20.2486,5.56347 20.2502,6.56459 20.2502,8 v 8 c 0,1.4354 -0.0016,2.4365 -0.1031,3.1919 -0.0987,0.7338 -0.2791,1.1223 -0.5559,1.3991 -0.2768,0.2768 -0.6653,0.4572 -1.3991,0.5559 -0.7554,0.1015 -1.7565,0.1031 -3.1919,0.1031 h -1 c -1.4354,0 -2.4365,-0.0016 -3.1919,-0.1031 C 10.0746,21.0482 9.68599,20.8678 9.40923,20.591 9.16577,20.3475 8.9986,20.0195 8.89448,19.4527 8.78643,18.8644 8.75803,18.0893 8.75194,16.9958 8.74964,16.5816 8.41199,16.2477 7.99778,16.25 7.58357,16.2523 7.24966,16.59 7.25197,17.0042 Z"
       fill="#1c274c"
       id="path138" />
  </g>
</svg>
