<?xml version="1.0" ?>
<!-- Uploaded to: SVG Repo, www.svgrepo.com, Generator: SVG Repo Mixer Tools -->
<svg fill="#000000" width="800px" height="800px" viewBox="0 0 64 64" id="Layer_1_1_" version="1.1" xml:space="preserve" xmlns="http://www.w3.org/2000/svg" xmlns:xlink="http://www.w3.org/1999/xlink">
<g>
<path d="M32,33c1.654,0,3-1.346,3-3s-1.346-3-3-3s-3,1.346-3,3S30.346,33,32,33z M32,29c0.552,0,1,0.449,1,1s-0.448,1-1,1   s-1-0.449-1-1S31.448,29,32,29z"/>
<path d="M56,5H35.997C35.997,4.968,36,4.936,36,4.903C36,2.751,34.249,1,32.097,1h-0.193C29.751,1,28,2.751,28,4.903   C28,4.937,28.003,4.967,28.003,5H8v34h9v4.578c0,1.782,0.522,3.509,1.512,4.993L21,52.303V57h-2v6h26v-6h-2v-4.697l2.488-3.732   C46.478,47.086,47,45.36,47,43.578V39h9V5z M23.512,27.913l4.622-3.618C29.357,24.753,30.661,25,32,25s2.643-0.247,3.866-0.705   L52.1,37H25v-6C25,29.751,24.412,28.647,23.512,27.913z M17.058,30.423L10,35.948V8.325l14.409,13.65   c0.537,0.508,1.118,0.954,1.732,1.34l-4.758,3.724C21.256,27.026,21.131,27,21,27C18.991,27,17.341,28.492,17.058,30.423z    M37.859,23.315c0.614-0.386,1.196-0.831,1.732-1.34L54,8.325v27.623L37.859,23.315z M31.903,3h0.193C33.146,3,34,3.854,34,4.903   l-0.865,13.035C33.096,18.534,32.597,19,32,19s-1.096-0.466-1.135-1.062L30.004,5.021L30,4.903C30,3.854,30.854,3,31.903,3z M32,21   c1.646,0,3.022-1.287,3.131-2.929L35.868,7H52.49L38.216,20.523C36.53,22.121,34.322,23,32,23s-4.53-0.879-6.216-2.477L11.51,7   h16.622l0.738,11.07C28.978,19.713,30.354,21,32,21z M11.9,37l5.1-3.991V37H11.9z M43,61H21v-2h22V61z M45,43.578   c0,1.386-0.406,2.729-1.176,3.883L41,51.697V57H23v-5.303l-2.824-4.236C19.406,46.307,19,44.964,19,43.578V31c0-1.103,0.897-2,2-2   s2,0.897,2,2v11h1c2.757,0,5,2.243,5,5h2c0-3.521-2.612-6.442-6-6.929V39h20V43.578z"/>
</g>
</svg>